<svg width="107" height="32" viewBox="0 0 107 32" fill="none" xmlns="http://www.w3.org/2000/svg">
<path fill-rule="evenodd" clip-rule="evenodd" d="M66.6435 25.0256C60.4896 29.5758 51.5386 32 43.8183 32C33.0024 32 23.3055 28.0093 15.9209 21.3705C15.3614 20.8484 15.8463 20.1398 16.5549 20.55C24.4989 25.1748 34.3078 27.9347 44.4523 27.9347C51.2775 27.9347 58.8113 26.5174 65.7484 23.571C66.7927 23.1608 67.6505 24.2797 66.6435 25.0256Z" fill="#C6FF53"/>
<path fill-rule="evenodd" clip-rule="evenodd" d="M69.2169 22.0792C68.4336 21.0722 63.9954 21.5944 62.0187 21.8555C61.422 21.9301 61.3101 21.4079 61.8695 21.0349C65.4127 18.5361 71.1935 19.282 71.8649 20.1025C72.5362 20.9231 71.6784 26.7412 68.359 29.5012C67.8369 29.9114 67.352 29.6876 67.5758 29.1282C68.3217 27.2634 70.0001 23.1235 69.2169 22.0792Z" fill="#C6FF53"/>
<path fill-rule="evenodd" clip-rule="evenodd" d="M62.1306 3.50582V1.08158C62.1306 0.708622 62.3917 0.484844 62.7273 0.484844H73.5432C73.8789 0.484844 74.1772 0.745918 74.1772 1.08158V3.13286C74.1772 3.46853 73.8789 3.91608 73.3567 4.662L67.7623 12.6434C69.8509 12.6061 72.0514 12.9044 73.9162 13.9487C74.3264 14.1725 74.4383 14.5455 74.4756 14.8811V17.4545C74.4756 17.8275 74.1026 18.2378 73.6924 18.014C70.373 16.2611 65.9348 16.0746 62.2798 18.0513C61.9068 18.2378 61.4966 17.8648 61.4966 17.4918V15.0303C61.4966 14.6573 61.4966 13.986 61.9068 13.3893L68.3964 4.10256H62.7646C62.429 4.10256 62.1306 3.84149 62.1306 3.50582ZM22.7087 18.5361H19.4267C19.1283 18.4988 18.8672 18.275 18.8299 17.9767V1.11888C18.8299 0.783217 19.1283 0.522142 19.4639 0.522142H22.5222C22.8579 0.522142 23.0817 0.783214 23.119 1.08158V3.28205H23.1936C23.9768 1.15617 25.5059 0.149182 27.5199 0.149182C29.5712 0.149182 30.8765 1.15617 31.7716 3.28205C32.5549 1.15617 34.3824 0.149182 36.3218 0.149182C37.7017 0.149182 39.1936 0.708622 40.126 2.01398C41.1702 3.43123 40.9465 5.48252 40.9465 7.31002V17.9767C40.9465 18.3123 40.6481 18.5734 40.3124 18.5734H37.0677C36.732 18.5361 36.4709 18.275 36.4709 17.9767V9.02563C36.4709 8.31701 36.5455 6.5268 36.3964 5.85547C36.1353 4.73659 35.4267 4.40093 34.457 4.40093C33.6737 4.40093 32.8159 4.92308 32.4803 5.78089C32.1446 6.63869 32.1819 8.05594 32.1819 9.02563V17.9767C32.1819 18.3123 31.8835 18.5734 31.5479 18.5734H28.2658C27.9301 18.5361 27.6691 18.275 27.6691 17.9767V9.02563C27.6691 7.16083 27.9674 4.36363 25.6551 4.36363C23.3054 4.36363 23.38 7.04894 23.38 9.02563V17.9767C23.3427 18.275 23.0817 18.5361 22.7087 18.5361ZM83.5012 0.149182C88.387 0.149182 91.035 4.32634 91.035 9.65967C91.035 14.8065 88.126 18.9091 83.5012 18.9091C78.7274 18.9091 76.1166 14.7319 76.1166 9.51049C76.0793 4.25175 78.7274 0.149182 83.5012 0.149182ZM83.5012 3.61771C81.077 3.61771 80.9278 6.93706 80.9278 8.98835C80.9278 11.0396 80.8905 15.4406 83.464 15.4406C86.0001 15.4406 86.1493 11.8974 86.1493 9.73427C86.1493 8.31702 86.0747 6.6014 85.6644 5.25874C85.2915 4.06527 84.5455 3.61771 83.5012 3.61771ZM97.3381 18.5361H94.056C93.7204 18.4988 93.4593 18.2378 93.4593 17.9394V1.04428C93.4966 0.745916 93.7577 0.484844 94.0933 0.484844H97.1516C97.45 0.484844 97.6737 0.708627 97.7483 0.969699V3.54312H97.8229C98.7553 1.23077 100.023 0.149182 102.298 0.149182C103.753 0.149182 105.208 0.671322 106.14 2.12587C106.998 3.46852 106.998 5.74358 106.998 7.38461V18.014C106.96 18.3123 106.699 18.5361 106.364 18.5361H103.082C102.783 18.4988 102.522 18.2751 102.485 18.014V8.83915C102.485 6.97435 102.709 4.28904 100.434 4.28904C99.6504 4.28904 98.9045 4.81119 98.5315 5.6317C98.084 6.67599 98.0094 7.68298 98.0094 8.83915V17.9394C97.9721 18.2751 97.6737 18.5361 97.3381 18.5361ZM53.5152 10.4802C53.5152 11.7483 53.5525 12.8298 52.9185 13.986C52.3964 14.9184 51.5758 15.4779 50.6434 15.4779C49.3754 15.4779 48.6295 14.5082 48.6295 13.0909C48.6295 10.2937 51.1283 9.77155 53.5152 9.77155V10.4802ZM56.8346 18.4988C56.6108 18.6853 56.3124 18.7226 56.0514 18.5734C54.9698 17.6783 54.746 17.2308 54.1493 16.373C52.3591 18.2005 51.0537 18.7599 48.7413 18.7599C45.9814 18.7599 43.8183 17.0443 43.8183 13.6504C43.8183 10.965 45.2728 9.17482 47.3241 8.27971C49.1143 7.4965 51.6131 7.34732 53.5152 7.12354V6.71329C53.5152 5.93007 53.5898 4.99767 53.105 4.32634C52.6947 3.72961 51.9488 3.46853 51.2775 3.46853C50.0094 3.46853 48.8905 4.10257 48.6295 5.44522C48.5549 5.74359 48.3684 6.04195 48.07 6.04195L44.8998 5.70629C44.6388 5.6317 44.3404 5.44522 44.415 5.03496C45.1609 1.15618 48.6294 0 51.7623 0C53.366 0 55.4546 0.410254 56.7227 1.64102C58.3264 3.13286 58.1772 5.14685 58.1772 7.31002V12.4196C58.1772 13.9487 58.8113 14.62 59.408 15.4779C59.6318 15.7762 59.6691 16.1492 59.408 16.3357C58.6994 16.8951 57.5059 17.9394 56.8346 18.4988ZM10.4383 10.4802C10.4383 11.7483 10.4756 12.8298 9.84157 13.986C9.31943 14.9184 8.49891 15.4779 7.56651 15.4779C6.29844 15.4779 5.55253 14.5082 5.55253 13.0909C5.55253 10.2937 8.05136 9.77155 10.4383 9.77155V10.4802ZM13.7204 18.4988C13.4966 18.6853 13.1982 18.7226 12.9371 18.5734C11.8556 17.6783 11.6318 17.2308 11.035 16.373C9.24483 18.2005 7.93947 18.7599 5.62712 18.7599C2.86721 18.7599 0.704041 17.0443 0.704041 13.6504C0.704041 10.965 2.15858 9.17482 4.20987 8.27971C6.00008 7.4965 8.49891 7.34732 10.401 7.12354V6.71329C10.401 5.93007 10.4756 4.99767 9.99075 4.32634C9.5805 3.72961 8.83458 3.46853 8.16325 3.46853C6.89518 3.46853 5.7763 4.10257 5.51523 5.44522C5.44064 5.74359 5.25416 6.04195 4.95579 6.04195L1.78562 5.70629C1.52455 5.6317 1.22619 5.44522 1.30078 5.03496C2.0467 1.15618 5.51523 0 8.6481 0C10.2518 0 12.3404 0.410254 13.6085 1.64102C15.2122 3.13286 15.063 5.14685 15.063 7.31002V12.4196C15.063 13.9487 15.697 14.62 16.2938 15.4779C16.5176 15.7762 16.5549 16.1492 16.2938 16.3357C15.5852 16.8951 14.3917 17.9394 13.7204 18.4988Z" fill="#C6FF53"/>
</svg>
