<svg width="120" height="24" viewBox="0 0 120 24" fill="none" xmlns="http://www.w3.org/2000/svg">
<g clip-path="url(#clip0_601_9516)">
<path d="M13.8704 4.43772L6.93522 8.86446L13.8704 13.2912L6.93522 17.7179L0 13.2543L6.93522 8.82757L0 4.43772L6.93522 0.0109863L13.8704 4.43772ZM6.89833 19.1197L13.8336 14.693L20.7688 19.1197L13.8336 23.5465L6.89833 19.1197ZM13.8704 13.2543L20.8057 8.82757L13.8704 4.43772L20.7688 0.0109863L27.704 4.43772L20.7688 8.86446L27.704 13.2912L20.7688 17.7179L13.8704 13.2543Z" fill="#3B3FBA"/>
<path d="M33.1267 4.43754H38.7339C42.3122 4.43754 45.2633 6.50335 45.2633 11.2252V12.2212C45.2633 16.98 42.4966 19.1196 38.8446 19.1196H33.1267V4.43754ZM36.2623 7.09359V16.4266H38.6601C40.6891 16.4266 42.054 15.0986 42.054 12.1474V11.3728C42.054 8.42161 40.6153 7.09359 38.5495 7.09359H36.2623ZM46.9234 7.24114H49.4319L49.8376 10.0079C50.3172 8.12649 51.5346 7.13048 53.7479 7.13048H54.5226V10.303H53.2315C50.6861 10.303 50.059 11.1883 50.059 13.6968V19.1564H46.9603V7.24114H46.9234ZM55.1497 13.4386V13.1066C55.1497 9.12251 57.6951 6.94603 61.1627 6.94603C64.7041 6.94603 67.1757 9.12251 67.1757 13.1066V13.4386C67.1757 17.3489 64.7779 19.4516 61.1627 19.4516C57.3262 19.4147 55.1497 17.3489 55.1497 13.4386ZM64.0032 13.4017V13.1066C64.0032 10.8932 62.8965 9.56518 61.1258 9.56518C59.392 9.56518 58.2484 10.7825 58.2484 13.1066V13.4017C58.2484 15.5413 59.3551 16.7586 61.1258 16.7586C62.8965 16.7217 64.0032 15.5413 64.0032 13.4017ZM68.7988 7.24114H71.3811L71.6762 9.4914C72.3033 7.97893 73.6314 6.94603 75.5865 6.94603C78.6114 6.94603 80.6035 9.12251 80.6035 13.1435V13.4755C80.6035 17.3858 78.3901 19.4516 75.5865 19.4516C73.7051 19.4516 72.414 18.6031 71.7869 17.2382V23.2512H68.7619L68.7988 7.24114ZM77.4679 13.4017V13.1435C77.4679 10.7825 76.2505 9.60207 74.6274 9.60207C72.8936 9.60207 71.75 10.9301 71.75 13.1435V13.3648C71.75 15.4675 72.8567 16.7955 74.5905 16.7955C76.3612 16.7586 77.4679 15.6151 77.4679 13.4017ZM85.1778 16.9431L84.9195 19.1196H82.2635V3.25708H85.2884V9.34384C85.9524 7.79449 87.2805 6.94603 89.1618 6.94603C92.0023 6.98292 94.105 8.93806 94.105 12.8852V13.2541C94.105 17.2013 92.113 19.4516 89.088 19.4516C87.096 19.4147 85.8049 18.4924 85.1778 16.9431ZM90.9325 13.2541V12.959C90.9325 10.7825 89.7521 9.56518 88.092 9.56518C86.3951 9.56518 85.2147 10.9301 85.2147 12.9959V13.2541C85.2147 15.4675 86.3582 16.7586 88.0551 16.7586C89.8627 16.7586 90.9325 15.6151 90.9325 13.2541ZM95.433 13.4386V13.1066C95.433 9.12251 97.9784 6.94603 101.446 6.94603C104.987 6.94603 107.459 9.12251 107.459 13.1066V13.4386C107.459 17.3489 105.024 19.4516 101.446 19.4516C97.6095 19.4147 95.433 17.3489 95.433 13.4386ZM104.323 13.4017V13.1066C104.323 10.8932 103.217 9.56518 101.446 9.56518C99.7122 9.56518 98.5686 10.7825 98.5686 13.1066V13.4017C98.5686 15.5413 99.6753 16.7586 101.446 16.7586C103.217 16.7217 104.323 15.5413 104.323 13.4017ZM111.517 12.959L107.348 7.24114H110.927L113.324 10.8194L115.759 7.24114H119.301L115.058 12.9221L119.522 19.1196H116.017L113.288 15.1724L110.632 19.1196H106.979L111.517 12.959Z" fill="#3B3FBA"/>
</g>
<defs>
<clipPath id="clip0_601_9516">
<rect width="119.522" height="24" fill="white"/>
</clipPath>
</defs>
</svg>
