<svg width="160" height="32" viewBox="0 0 160 32" fill="none" xmlns="http://www.w3.org/2000/svg">
<g clip-path="url(#clip0_601_9496)">
<path d="M18.4939 5.91697L9.24696 11.8193L18.4939 17.7216L9.24696 23.6239L0 17.6724L9.24696 11.7701L0 5.91697L9.24696 0.0146484L18.4939 5.91697ZM9.19778 25.493L18.4447 19.5907L27.6917 25.493L18.4447 31.3953L9.19778 25.493ZM18.4939 17.6724L27.7409 11.7701L18.4939 5.91697L27.6917 0.0146484L36.9387 5.91697L27.6917 11.8193L36.9387 17.7216L27.6917 23.6239L18.4939 17.6724Z" fill="#C6FF53"/>
<path d="M44.169 5.91697H51.6453C56.4163 5.91697 60.3512 8.67138 60.3512 14.9672V16.2952C60.3512 22.6402 56.6622 25.493 51.7928 25.493H44.169V5.91697ZM48.3498 9.45836V21.9024H51.5469C54.2521 21.9024 56.072 20.1317 56.072 16.1968V15.1639C56.072 11.2291 54.1538 9.45836 51.3993 9.45836H48.3498ZM62.5646 9.6551H65.9092L66.4503 13.3441C67.0897 10.8356 68.7128 9.50754 71.664 9.50754H72.6969V13.7375H70.9754C67.5815 13.7375 66.7454 14.918 66.7454 18.2626V25.5422H62.6137V9.6551H62.5646ZM73.533 17.9183V17.4757C73.533 12.1636 76.9269 9.26161 81.5503 9.26161C86.2722 9.26161 89.5677 12.1636 89.5677 17.4757V17.9183C89.5677 23.1321 86.3706 25.9357 81.5503 25.9357C76.435 25.8865 73.533 23.1321 73.533 17.9183ZM85.3377 17.8692V17.4757C85.3377 14.5245 83.8621 12.7538 81.5012 12.7538C79.1894 12.7538 77.6646 14.377 77.6646 17.4757V17.8692C77.6646 20.7219 79.1402 22.3451 81.5012 22.3451C83.8621 22.2959 85.3377 20.7219 85.3377 17.8692ZM91.7318 9.6551H95.1749L95.5683 12.6554C96.4045 10.6388 98.1752 9.26161 100.782 9.26161C104.815 9.26161 107.471 12.1636 107.471 17.5249V17.9675C107.471 23.1812 104.52 25.9357 100.782 25.9357C98.2736 25.9357 96.5521 24.8044 95.7159 22.9845V31.0018H91.6826L91.7318 9.6551ZM103.291 17.8692V17.5249C103.291 14.377 101.667 12.803 99.5032 12.803C97.1915 12.803 95.6667 14.5737 95.6667 17.5249V17.82C95.6667 20.6236 97.1423 22.3943 99.454 22.3943C101.815 22.3451 103.291 20.8203 103.291 17.8692ZM113.57 22.591L113.226 25.493H109.685V4.34302H113.718V12.4587C114.603 10.3929 116.374 9.26161 118.882 9.26161C122.67 9.3108 125.473 11.9177 125.473 17.1806V17.6724C125.473 22.9353 122.817 25.9357 118.784 25.9357C116.128 25.8865 114.407 24.6568 113.57 22.591ZM121.243 17.6724V17.2789C121.243 14.377 119.669 12.7538 117.456 12.7538C115.194 12.7538 113.62 14.5737 113.62 17.3281V17.6724C113.62 20.6236 115.144 22.3451 117.407 22.3451C119.817 22.3451 121.243 20.8203 121.243 17.6724ZM127.244 17.9183V17.4757C127.244 12.1636 130.638 9.26161 135.261 9.26161C139.983 9.26161 143.279 12.1636 143.279 17.4757V17.9183C143.279 23.1321 140.032 25.9357 135.261 25.9357C130.146 25.8865 127.244 23.1321 127.244 17.9183ZM139.098 17.8692V17.4757C139.098 14.5245 137.622 12.7538 135.261 12.7538C132.95 12.7538 131.425 14.377 131.425 17.4757V17.8692C131.425 20.7219 132.9 22.3451 135.261 22.3451C137.622 22.2959 139.098 20.7219 139.098 17.8692ZM148.689 17.2789L143.131 9.6551H147.902L151.099 14.4261L154.346 9.6551H159.067L153.411 17.2297L159.363 25.493H154.69L151.05 20.2301L147.509 25.493H142.639L148.689 17.2789Z" fill="#C6FF53"/>
</g>
<defs>
<clipPath id="clip0_601_9496">
<rect width="159.363" height="32" fill="white"/>
</clipPath>
</defs>
</svg>
