<svg width="32" height="24" viewBox="0 0 32 24" fill="none" xmlns="http://www.w3.org/2000/svg">
<g clip-path="url(#clip0_601_10381)">
<path d="M6.42815 23.9481V22.3552C6.42815 21.7446 6.05648 21.3464 5.41931 21.3464C5.10072 21.3464 4.75559 21.4526 4.51666 21.7977C4.33081 21.5057 4.06532 21.3464 3.66709 21.3464C3.40161 21.3464 3.13612 21.426 2.92373 21.7181V21.3995H2.36621V23.9481H2.92373V22.5411C2.92373 22.0897 3.16267 21.8773 3.53435 21.8773C3.90603 21.8773 4.09187 22.1163 4.09187 22.5411V23.9481H4.6494V22.5411C4.6494 22.0897 4.91488 21.8773 5.26001 21.8773C5.6317 21.8773 5.81754 22.1163 5.81754 22.5411V23.9481H6.42815ZM14.6848 21.3995H13.7821V20.6296H13.2246V21.3995H12.7202V21.9039H13.2246V23.072C13.2246 23.6561 13.4636 24.0012 14.1007 24.0012C14.3397 24.0012 14.6051 23.9216 14.791 23.8154L14.6317 23.3375C14.4724 23.4437 14.2866 23.4703 14.1538 23.4703C13.8883 23.4703 13.7821 23.311 13.7821 23.0455V21.9039H14.6848V21.3995ZM19.4105 21.3464C19.0919 21.3464 18.8795 21.5057 18.7467 21.7181V21.3995H18.1892V23.9481H18.7467V22.5145C18.7467 22.0897 18.9326 21.8508 19.2777 21.8508C19.3839 21.8508 19.5167 21.8773 19.6229 21.9039L19.7821 21.3729C19.6759 21.3464 19.5166 21.3464 19.4105 21.3464ZM12.2689 21.6119C12.0034 21.426 11.6317 21.3464 11.2335 21.3464C10.5963 21.3464 10.1715 21.665 10.1715 22.1694C10.1715 22.5942 10.4901 22.8331 11.0476 22.9127L11.3131 22.9393C11.6051 22.9924 11.7644 23.072 11.7644 23.2048C11.7644 23.3906 11.552 23.5234 11.1804 23.5234C10.8087 23.5234 10.5167 23.3906 10.3308 23.2579L10.0653 23.6827C10.3574 23.895 10.7556 24.0012 11.1538 24.0012C11.8972 24.0012 12.322 23.6561 12.322 23.1782C12.322 22.7269 11.9768 22.488 11.4459 22.4083L11.1804 22.3818C10.9414 22.3552 10.7556 22.3021 10.7556 22.1428C10.7556 21.957 10.9414 21.8508 11.2335 21.8508C11.5521 21.8508 11.8706 21.9835 12.0299 22.0632L12.2689 21.6119ZM27.083 21.3464C26.7644 21.3464 26.5521 21.5057 26.4193 21.7181V21.3995H25.8618V23.9481H26.4193V22.5145C26.4193 22.0897 26.6052 21.8508 26.9503 21.8508C27.0565 21.8508 27.1892 21.8773 27.2954 21.9039L27.4547 21.3729C27.3485 21.3464 27.1892 21.3464 27.083 21.3464ZM19.968 22.6738C19.968 23.4437 20.499 24.0012 21.322 24.0012C21.6936 24.0012 21.9591 23.9216 22.2246 23.7092L21.9591 23.2579C21.7467 23.4172 21.5344 23.4968 21.2954 23.4968C20.8441 23.4968 20.5255 23.1782 20.5255 22.6738C20.5255 22.1959 20.8441 21.8773 21.2954 21.8508C21.5344 21.8508 21.7467 21.9304 21.9591 22.0897L22.2246 21.6384C21.9591 21.426 21.6936 21.3464 21.322 21.3464C20.499 21.3464 19.968 21.9039 19.968 22.6738ZM25.1184 22.6738V21.3995H24.5609V21.7181C24.3751 21.4791 24.1096 21.3464 23.7644 21.3464C23.0476 21.3464 22.4901 21.9039 22.4901 22.6738C22.4901 23.4437 23.0476 24.0012 23.7644 24.0012C24.1361 24.0012 24.4016 23.8685 24.5609 23.6296V23.9481H25.1184V22.6738ZM23.0742 22.6738C23.0742 22.2225 23.3662 21.8508 23.8441 21.8508C24.2954 21.8508 24.614 22.1959 24.614 22.6738C24.614 23.1251 24.2954 23.4968 23.8441 23.4968C23.3662 23.4703 23.0742 23.1251 23.0742 22.6738ZM16.4105 21.3464C15.6671 21.3464 15.1361 21.8773 15.1361 22.6738C15.1361 23.4703 15.6671 24.0012 16.437 24.0012C16.8087 24.0012 17.1804 23.895 17.4724 23.6561L17.2069 23.2579C16.9945 23.4172 16.729 23.5234 16.4636 23.5234C16.1184 23.5234 15.7733 23.3641 15.6936 22.9127H17.5786C17.5786 22.8331 17.5786 22.78 17.5786 22.7003C17.6051 21.8773 17.1273 21.3464 16.4105 21.3464ZM16.4105 21.8242C16.7556 21.8242 16.9945 22.0366 17.0476 22.4349H15.7202C15.7733 22.0897 16.0122 21.8242 16.4105 21.8242ZM30.2423 22.6738V20.3906H29.6848V21.7181C29.499 21.4791 29.2335 21.3464 28.8883 21.3464C28.1715 21.3464 27.614 21.9039 27.614 22.6738C27.614 23.4437 28.1715 24.0012 28.8883 24.0012C29.26 24.0012 29.5255 23.8685 29.6848 23.6296V23.9481H30.2423V22.6738ZM28.1981 22.6738C28.1981 22.2225 28.4901 21.8508 28.968 21.8508C29.4193 21.8508 29.7379 22.1959 29.7379 22.6738C29.7379 23.1251 29.4193 23.4968 28.968 23.4968C28.4901 23.4703 28.1981 23.1251 28.1981 22.6738ZM9.5609 22.6738V21.3995H9.00338V21.7181C8.81754 21.4791 8.55205 21.3464 8.20692 21.3464C7.49011 21.3464 6.93258 21.9039 6.93258 22.6738C6.93258 23.4437 7.49011 24.0012 8.20692 24.0012C8.5786 24.0012 8.84409 23.8685 9.00338 23.6296V23.9481H9.5609V22.6738ZM7.4901 22.6738C7.4901 22.2225 7.78214 21.8508 8.26001 21.8508C8.71134 21.8508 9.02993 22.1959 9.02993 22.6738C9.02993 23.1251 8.71134 23.4968 8.26001 23.4968C7.78214 23.4703 7.4901 23.1251 7.4901 22.6738Z" fill="#1D2B27"/>
<path d="M20.4469 2.04443H12.0835V17.072H20.4469V2.04443Z" fill="#1D2B27"/>
<path d="M12.6147 9.55816C12.6147 6.50486 14.0485 3.79672 16.2522 2.04439C14.6326 0.769966 12.5882 0 10.358 0C5.07443 0 0.799805 4.27462 0.799805 9.55816C0.799805 14.8417 5.07443 19.1163 10.358 19.1163C12.5882 19.1163 14.6326 18.3464 16.2522 17.0719C14.0485 15.3462 12.6147 12.6115 12.6147 9.55816Z" fill="#1D2B27"/>
<path d="M31.7311 9.55816C31.7311 14.8417 27.4565 19.1163 22.173 19.1163C19.9428 19.1163 17.8984 18.3464 16.2788 17.0719C18.509 15.3196 19.9162 12.6115 19.9162 9.55816C19.9162 6.50486 18.4825 3.79672 16.2788 2.04439C17.8984 0.769966 19.9428 0 22.173 0C27.4565 0 31.7311 4.30117 31.7311 9.55816Z" fill="#1D2B27"/>
</g>
<defs>
<clipPath id="clip0_601_10381">
<rect width="30.9292" height="24" fill="white" transform="translate(0.799805)"/>
</clipPath>
</defs>
</svg>
