<svg width="21" height="16" viewBox="0 0 21 16" fill="none" xmlns="http://www.w3.org/2000/svg">
<g clip-path="url(#clip0_601_10089)">
<path d="M3.75215 15.9654V14.9035C3.75215 14.4964 3.50437 14.2309 3.07959 14.2309C2.8672 14.2309 2.63711 14.3017 2.47782 14.5318C2.35393 14.3371 2.17693 14.2309 1.91145 14.2309C1.73445 14.2309 1.55746 14.284 1.41587 14.4787V14.2663H1.04419V15.9654H1.41587V15.0274C1.41587 14.7265 1.57516 14.5849 1.82295 14.5849C2.07074 14.5849 2.19463 14.7442 2.19463 15.0274V15.9654H2.56631V15.0274C2.56631 14.7265 2.7433 14.5849 2.97339 14.5849C3.22118 14.5849 3.34507 14.7442 3.34507 15.0274V15.9654H3.75215ZM9.25658 14.2663H8.65481V13.753H8.28313V14.2663H7.94685V14.6026H8.28313V15.3814C8.28313 15.7707 8.44242 16.0008 8.8672 16.0008C9.02649 16.0008 9.20348 15.9477 9.32737 15.8769L9.22118 15.5583C9.11498 15.6291 8.99109 15.6468 8.9026 15.6468C8.72561 15.6468 8.65481 15.5406 8.65481 15.3637V14.6026H9.25658V14.2663ZM12.407 14.2309C12.1946 14.2309 12.053 14.3371 11.9645 14.4787V14.2663H11.5929V15.9654H11.9645V15.0097C11.9645 14.7265 12.0884 14.5672 12.3185 14.5672C12.3893 14.5672 12.4778 14.5849 12.5486 14.6026L12.6548 14.2486C12.584 14.2309 12.4778 14.2309 12.407 14.2309ZM7.64596 14.4079C7.46897 14.284 7.22118 14.2309 6.95569 14.2309C6.53091 14.2309 6.24773 14.4433 6.24773 14.7796C6.24773 15.0628 6.46012 15.2221 6.8318 15.2752L7.00879 15.2929C7.20348 15.3283 7.30968 15.3814 7.30968 15.4698C7.30968 15.5937 7.16808 15.6822 6.92029 15.6822C6.67251 15.6822 6.47782 15.5937 6.35392 15.5052L6.17693 15.7884C6.37162 15.93 6.63711 16.0008 6.9026 16.0008C7.39817 16.0008 7.68136 15.7707 7.68136 15.4522C7.68136 15.1513 7.45127 14.992 7.09728 14.9389L6.92029 14.9212C6.761 14.9035 6.63711 14.8681 6.63711 14.7619C6.63711 14.638 6.761 14.5672 6.95569 14.5672C7.16808 14.5672 7.38047 14.6557 7.48667 14.7088L7.64596 14.4079ZM17.5221 14.2309C17.3097 14.2309 17.1681 14.3371 17.0796 14.4787V14.2663H16.7079V15.9654H17.0796V15.0097C17.0796 14.7265 17.2035 14.5672 17.4336 14.5672C17.5044 14.5672 17.5929 14.5849 17.6637 14.6026L17.7699 14.2486C17.6991 14.2309 17.5929 14.2309 17.5221 14.2309ZM12.7787 15.1159C12.7787 15.6291 13.1327 16.0008 13.6814 16.0008C13.9291 16.0008 14.1061 15.9477 14.2831 15.8061L14.1061 15.5052C13.9645 15.6114 13.8229 15.6645 13.6637 15.6645C13.3628 15.6645 13.1504 15.4521 13.1504 15.1159C13.1504 14.7973 13.3628 14.5849 13.6637 14.5672C13.8229 14.5672 13.9645 14.6203 14.1061 14.7265L14.2831 14.4256C14.1061 14.284 13.9291 14.2309 13.6814 14.2309C13.1327 14.2309 12.7787 14.6026 12.7787 15.1159ZM16.2123 15.1159V14.2663H15.8407V14.4787C15.7168 14.3194 15.5398 14.2309 15.3097 14.2309C14.8318 14.2309 14.4601 14.6026 14.4601 15.1159C14.4601 15.6291 14.8318 16.0008 15.3097 16.0008C15.5575 16.0008 15.7345 15.9123 15.8407 15.753V15.9654H16.2123V15.1159ZM14.8495 15.1159C14.8495 14.815 15.0442 14.5672 15.3628 14.5672C15.6637 14.5672 15.876 14.7973 15.876 15.1159C15.876 15.4168 15.6637 15.6645 15.3628 15.6645C15.0442 15.6468 14.8495 15.4168 14.8495 15.1159ZM10.407 14.2309C9.91145 14.2309 9.55747 14.5849 9.55747 15.1159C9.55747 15.6468 9.91145 16.0008 10.4247 16.0008C10.6725 16.0008 10.9203 15.93 11.115 15.7707L10.938 15.5052C10.7964 15.6114 10.6194 15.6822 10.4424 15.6822C10.2123 15.6822 9.98224 15.576 9.92914 15.2752H11.1858C11.1858 15.2221 11.1858 15.1867 11.1858 15.1336C11.2035 14.5849 10.8849 14.2309 10.407 14.2309ZM10.407 14.5495C10.6371 14.5495 10.7964 14.6911 10.8318 14.9566H9.94684C9.98224 14.7265 10.1415 14.5495 10.407 14.5495ZM19.6283 15.1159V13.5938H19.2566V14.4787C19.1327 14.3194 18.9557 14.2309 18.7256 14.2309C18.2477 14.2309 17.8761 14.6026 17.8761 15.1159C17.8761 15.6291 18.2477 16.0008 18.7256 16.0008C18.9734 16.0008 19.1504 15.9123 19.2566 15.753V15.9654H19.6283V15.1159ZM18.2654 15.1159C18.2654 14.815 18.4601 14.5672 18.7787 14.5672C19.0796 14.5672 19.292 14.7973 19.292 15.1159C19.292 15.4168 19.0796 15.6645 18.7787 15.6645C18.4601 15.6468 18.2654 15.4168 18.2654 15.1159ZM5.84065 15.1159V14.2663H5.46897V14.4787C5.34507 14.3194 5.16808 14.2309 4.93799 14.2309C4.46012 14.2309 4.08843 14.6026 4.08843 15.1159C4.08843 15.6291 4.46012 16.0008 4.93799 16.0008C5.18578 16.0008 5.36277 15.9123 5.46897 15.753V15.9654H5.84065V15.1159ZM4.46012 15.1159C4.46012 14.815 4.65481 14.5672 4.97339 14.5672C5.27427 14.5672 5.48667 14.7973 5.48667 15.1159C5.48667 15.4168 5.27427 15.6645 4.97339 15.6645C4.65481 15.6468 4.46012 15.4168 4.46012 15.1159Z" fill="#C6FF53"/>
<path d="M13.0983 1.36304H7.52271V11.3814H13.0983V1.36304Z" fill="#C6FF53"/>
<path d="M7.87663 6.37211C7.87663 4.33657 8.83244 2.53114 10.3016 1.36292C9.22185 0.513311 7.85893 0 6.3721 0C2.84975 0 0 2.84975 0 6.37211C0 9.89446 2.84975 12.7442 6.3721 12.7442C7.85893 12.7442 9.22185 12.2309 10.3016 11.3813C8.83244 10.2308 7.87663 8.40764 7.87663 6.37211Z" fill="#C6FF53"/>
<path d="M20.6209 6.37211C20.6209 9.89446 17.7711 12.7442 14.2488 12.7442C12.762 12.7442 11.399 12.2309 10.3193 11.3813C11.8062 10.2131 12.7443 8.40764 12.7443 6.37211C12.7443 4.33657 11.7885 2.53114 10.3193 1.36292C11.399 0.513311 12.762 0 14.2488 0C17.7711 0 20.6209 2.86745 20.6209 6.37211Z" fill="#C6FF53"/>
</g>
<defs>
<clipPath id="clip0_601_10089">
<rect width="20.6195" height="16" fill="white"/>
</clipPath>
</defs>
</svg>
