<svg width="91" height="24" viewBox="0 0 91 24" fill="none" xmlns="http://www.w3.org/2000/svg">
<g clip-path="url(#clip0_601_10461)">
<path d="M34.3382 4.90845H29.364C29.0236 4.90845 28.7341 5.15574 28.6811 5.49176L26.6693 18.2468C26.6293 18.4984 26.8242 18.7254 27.0795 18.7254H29.4542C29.7946 18.7254 30.0841 18.4781 30.1372 18.1413L30.6797 14.7011C30.7321 14.3643 31.0223 14.1171 31.362 14.1171H32.9366C36.2132 14.1171 38.1042 12.5315 38.5981 9.38947C38.8206 8.01484 38.6075 6.93476 37.9638 6.17835C37.2569 5.34775 36.003 4.90845 34.3382 4.90845ZM34.912 9.56694C34.64 11.3518 33.2763 11.3518 31.9576 11.3518H31.207L31.7336 8.01847C31.7649 7.817 31.9395 7.66863 32.1431 7.66863H32.4871C33.3854 7.66863 34.2327 7.66863 34.6705 8.18066C34.9316 8.48614 35.0117 8.93999 34.912 9.56694Z" fill="#474BC5"/>
<path d="M49.2056 9.50917H46.8237C46.6207 9.50917 46.4455 9.65754 46.4142 9.85901L46.3087 10.5252L46.1422 10.2838C45.6265 9.53535 44.4766 9.28516 43.3289 9.28516C40.6967 9.28516 38.4486 11.2787 38.0107 14.0753C37.7831 15.4703 38.1067 16.8042 38.898 17.7344C39.6239 18.5898 40.6625 18.9462 41.8982 18.9462C44.0191 18.9462 45.1952 17.5824 45.1952 17.5824L45.089 18.2443C45.049 18.4974 45.2439 18.7243 45.4978 18.7243H47.6433C47.9845 18.7243 48.2725 18.477 48.3263 18.1403L49.6137 9.98775C49.6544 9.73682 49.4602 9.50917 49.2056 9.50917ZM45.8854 14.1451C45.6556 15.5059 44.5755 16.4194 43.198 16.4194C42.5063 16.4194 41.9535 16.1976 41.5986 15.7772C41.2466 15.3597 41.1127 14.7655 41.2247 14.1037C41.4393 12.7545 42.5376 11.8111 43.894 11.8111C44.5704 11.8111 45.1203 12.0359 45.4825 12.4599C45.8454 12.8883 45.9894 13.4862 45.8854 14.1451Z" fill="#474BC5"/>
<path d="M61.8909 9.50903H59.4973C59.2689 9.50903 59.0543 9.6225 58.9249 9.81233L55.6236 14.6752L54.2242 10.0022C54.1362 9.70977 53.8664 9.50903 53.5609 9.50903H51.2087C50.9229 9.50903 50.7243 9.78832 50.8152 10.0574L53.4518 17.7947L50.9731 21.2938C50.7781 21.5695 50.9745 21.9484 51.3113 21.9484H53.702C53.9289 21.9484 54.1413 21.8378 54.27 21.6517L62.2313 10.16C62.4218 9.88506 62.2262 9.50903 61.8909 9.50903Z" fill="#474BC5"/>
<path d="M69.8152 4.90845H64.8403C64.5007 4.90845 64.2112 5.15574 64.1581 5.49176L62.1463 18.2468C62.1063 18.4984 62.3013 18.7254 62.5551 18.7254H65.108C65.3451 18.7254 65.548 18.5523 65.5851 18.3166L66.1561 14.7011C66.2084 14.3643 66.4986 14.1171 66.8383 14.1171H68.4122C71.6895 14.1171 73.5798 12.5315 74.0744 9.38947C74.2977 8.01484 74.0831 6.93476 73.4395 6.17835C72.7332 5.34775 71.4801 4.90845 69.8152 4.90845ZM70.3891 9.56694C70.1178 11.3518 68.7541 11.3518 67.4347 11.3518H66.6848L67.2121 8.01847C67.2434 7.817 67.4165 7.66863 67.6209 7.66863H67.9649C68.8624 7.66863 69.7105 7.66863 70.1483 8.18066C70.4094 8.48614 70.4887 8.93999 70.3891 9.56694Z" fill="#474BC5"/>
<path d="M84.682 9.50917H82.3015C82.0971 9.50917 81.9233 9.65754 81.8927 9.85901L81.7873 10.5252L81.62 10.2838C81.1043 9.53535 79.9552 9.28516 78.8074 9.28516C76.1753 9.28516 73.9278 11.2787 73.49 14.0753C73.2631 15.4703 73.5853 16.8042 74.3766 17.7344C75.1039 18.5898 76.1411 18.9462 77.3768 18.9462C79.4977 18.9462 80.6737 17.5824 80.6737 17.5824L80.5676 18.2443C80.5276 18.4974 80.7225 18.7243 80.9778 18.7243H83.1226C83.4623 18.7243 83.7518 18.477 83.8049 18.1403L85.093 9.98775C85.1322 9.73682 84.9373 9.50917 84.682 9.50917ZM81.3618 14.1451C81.1334 15.5059 80.0519 16.4194 78.6743 16.4194C77.9841 16.4194 77.4299 16.1976 77.075 15.7772C76.7229 15.3597 76.5906 14.7655 76.7011 14.1037C76.9171 12.7545 78.0139 11.8111 79.3704 11.8111C80.0468 11.8111 80.5967 12.0359 80.9589 12.4599C81.3232 12.8883 81.4673 13.4862 81.3618 14.1451Z" fill="#474BC5"/>
<path d="M87.4897 5.25828L85.4481 18.2468C85.4081 18.4984 85.603 18.7254 85.8569 18.7254H87.9093C88.2505 18.7254 88.5399 18.4781 88.5923 18.1413L90.6055 5.38702C90.6455 5.13537 90.4506 4.90771 90.1968 4.90771H87.8984C87.6955 4.90844 87.521 5.05682 87.4897 5.25828Z" fill="#474BC5"/>
<path d="M6.014 21.2044L6.39439 18.7883L5.54706 18.7686H1.50098L4.3128 0.939795C4.32153 0.885973 4.34989 0.835788 4.39135 0.800149C4.43281 0.764511 4.4859 0.744873 4.54118 0.744873H11.3635C13.6283 0.744873 15.1913 1.21618 16.0074 2.14642C16.39 2.58281 16.6336 3.03884 16.7514 3.54069C16.8751 4.06728 16.8773 4.69641 16.7565 5.46373L16.7478 5.51974V6.0114L17.1304 6.22815C17.4526 6.39907 17.7086 6.59472 17.905 6.81873C18.2323 7.19185 18.4439 7.66606 18.5334 8.22828C18.6258 8.8065 18.5952 9.49454 18.4439 10.2735C18.2694 11.1696 17.9872 11.95 17.606 12.5886C17.2555 13.177 16.8089 13.665 16.2787 14.0432C15.7725 14.4025 15.171 14.6753 14.4909 14.8498C13.832 15.0215 13.0807 15.108 12.2566 15.108H11.7257C11.346 15.108 10.9772 15.2447 10.6878 15.4899C10.3976 15.7401 10.2056 16.0819 10.1466 16.4557L10.1066 16.6732L9.4346 20.9317L9.40405 21.088C9.39605 21.1375 9.38223 21.1622 9.36186 21.179C9.34368 21.1942 9.3175 21.2044 9.29204 21.2044H6.014Z" fill="#474BC5"/>
<path d="M17.4929 5.57642C17.4725 5.70661 17.4492 5.83971 17.423 5.97644C16.5233 10.5957 13.4453 12.1914 9.51415 12.1914H7.51256C7.0318 12.1914 6.62668 12.5405 6.55177 13.0147L5.52697 19.5141L5.23677 21.3564C5.18804 21.6677 5.42806 21.9484 5.74226 21.9484H9.29231C9.71271 21.9484 10.0698 21.6429 10.136 21.2284L10.1709 21.048L10.8393 16.8063L10.8822 16.5735C10.9477 16.1575 11.3055 15.852 11.7259 15.852H12.2569C15.6964 15.852 18.3889 14.4556 19.1759 10.4146C19.5046 8.72644 19.3344 7.31689 18.4646 6.32556C18.2013 6.02663 17.8747 5.77861 17.4929 5.57642Z" fill="#474BC5"/>
<path d="M16.5517 5.2011C16.4142 5.1611 16.2724 5.12474 16.1269 5.09201C15.9807 5.06 15.8309 5.03164 15.6767 5.00691C15.1371 4.91963 14.5457 4.87817 13.9122 4.87817H8.56498C8.43334 4.87817 8.30824 4.90799 8.19623 4.96182C7.94967 5.08037 7.76638 5.31384 7.72202 5.59968L6.58449 12.8045L6.55176 13.0147C6.62667 12.5405 7.03179 12.1914 7.51255 12.1914H9.51414C13.4453 12.1914 16.5233 10.5949 17.423 5.97643C17.4499 5.83969 17.4725 5.70659 17.4928 5.5764C17.2652 5.45567 17.0186 5.35239 16.7532 5.26438C16.6877 5.24256 16.6201 5.22147 16.5517 5.2011Z" fill="#474BC5"/>
<path d="M7.72195 5.59964C7.76631 5.31381 7.9496 5.08034 8.19616 4.96251C8.3089 4.90869 8.43327 4.87887 8.56491 4.87887H13.9122C14.5457 4.87887 15.137 4.92033 15.6767 5.00761C15.8308 5.03233 15.9807 5.0607 16.1269 5.0927C16.2723 5.12543 16.4142 5.1618 16.5516 5.2018C16.62 5.22217 16.6876 5.24326 16.7538 5.26435C17.0193 5.35236 17.2659 5.45636 17.4935 5.57637C17.7612 3.86935 17.4913 2.70709 16.5684 1.65466C15.5508 0.496033 13.7143 0 11.3644 0H4.5421C4.06207 0 3.65259 0.349114 3.5784 0.824055L0.736757 18.8362C0.680754 19.1925 0.955681 19.514 1.31498 19.514H5.52689L6.58442 12.8045L7.72195 5.59964Z" fill="#474BC5"/>
</g>
<defs>
<clipPath id="clip0_601_10461">
<rect width="90.1818" height="24" fill="white" transform="translate(0.729492)"/>
</clipPath>
</defs>
</svg>
