<svg width="61" height="16" viewBox="0 0 61 16" fill="none" xmlns="http://www.w3.org/2000/svg">
<g clip-path="url(#clip0_601_10098)">
<path d="M22.7389 3.27222H19.4228C19.1958 3.27222 19.0029 3.43708 18.9675 3.66109L17.6263 12.1644C17.5996 12.3322 17.7296 12.4835 17.8998 12.4835H19.4829C19.7098 12.4835 19.9028 12.3186 19.9382 12.0941L20.2999 9.80065C20.3348 9.57615 20.5283 9.41129 20.7547 9.41129H21.8045C23.9889 9.41129 25.2496 8.35425 25.5788 6.25957C25.7272 5.34314 25.5851 4.62309 25.156 4.11882C24.6847 3.56508 23.8488 3.27222 22.7389 3.27222ZM23.1214 6.37788C22.9401 7.56777 22.0309 7.56777 21.1519 7.56777H20.6515L21.0025 5.34557C21.0234 5.21125 21.1397 5.11234 21.2755 5.11234H21.5048C22.1037 5.11234 22.6686 5.11234 22.9605 5.45369C23.1345 5.65734 23.1879 5.95991 23.1214 6.37788Z" fill="#C6FF53"/>
<path d="M32.6507 6.33928H31.0627C30.9274 6.33928 30.8106 6.4382 30.7897 6.57251L30.7194 7.01666L30.6084 6.85568C30.2646 6.35674 29.498 6.18994 28.7328 6.18994C26.9781 6.18994 25.4793 7.519 25.1874 9.38337C25.0356 10.3134 25.2514 11.2026 25.779 11.8228C26.2629 12.393 26.9553 12.6306 27.7791 12.6306C29.193 12.6306 29.977 11.7215 29.977 11.7215L29.9063 12.1627C29.8796 12.3314 30.0095 12.4827 30.1788 12.4827H31.6092C31.8366 12.4827 32.0286 12.3179 32.0645 12.0934L32.9227 6.65834C32.9498 6.49105 32.8204 6.33928 32.6507 6.33928ZM30.4372 9.42991C30.284 10.3371 29.5639 10.9461 28.6456 10.9461C28.1844 10.9461 27.8159 10.7982 27.5793 10.518C27.3446 10.2397 27.2554 9.84352 27.3301 9.40228C27.4731 8.50282 28.2053 7.87393 29.1096 7.87393C29.5605 7.87393 29.9271 8.02376 30.1686 8.30645C30.4105 8.59204 30.5065 8.99061 30.4372 9.42991Z" fill="#C6FF53"/>
<path d="M41.1076 6.33936H39.5119C39.3596 6.33936 39.2166 6.415 39.1303 6.54155L36.9294 9.78346L35.9965 6.6681C35.9378 6.47318 35.7579 6.33936 35.5543 6.33936H33.9862C33.7956 6.33936 33.6632 6.52555 33.7238 6.70496L35.4815 11.8631L33.8291 14.1959C33.6991 14.3796 33.83 14.6323 34.0545 14.6323H35.6483C35.7996 14.6323 35.9412 14.5586 36.027 14.4344L41.3345 6.77332C41.4616 6.59004 41.3311 6.33936 41.1076 6.33936Z" fill="#C6FF53"/>
<path d="M46.3902 3.27222H43.0737C42.8472 3.27222 42.6542 3.43708 42.6188 3.66109L41.2777 12.1644C41.251 12.3322 41.3809 12.4835 41.5502 12.4835H43.2521C43.4102 12.4835 43.5454 12.3681 43.5702 12.211L43.9508 9.80065C43.9857 9.57615 44.1792 9.41129 44.4056 9.41129H45.4549C47.6398 9.41129 48.9 8.35425 49.2297 6.25957C49.3786 5.34314 49.2355 4.62309 48.8064 4.11882C48.3356 3.56508 47.5001 3.27222 46.3902 3.27222ZM46.7728 6.37788C46.5919 7.56777 45.6828 7.56777 44.8032 7.56777H44.3033L44.6548 5.34557C44.6757 5.21125 44.7911 5.11234 44.9273 5.11234H45.1567C45.755 5.11234 46.3204 5.11234 46.6123 5.45369C46.7864 5.65734 46.8392 5.95991 46.7728 6.37788Z" fill="#C6FF53"/>
<path d="M56.3017 6.33928H54.7147C54.5784 6.33928 54.4625 6.4382 54.4422 6.57251L54.3719 7.01666L54.2603 6.85568C53.9166 6.35674 53.1504 6.18994 52.3853 6.18994C50.6305 6.18994 49.1322 7.519 48.8403 9.38337C48.6891 10.3134 48.9039 11.2026 49.4314 11.8228C49.9163 12.393 50.6077 12.6306 51.4315 12.6306C52.8455 12.6306 53.6295 11.7215 53.6295 11.7215L53.5587 12.1627C53.532 12.3314 53.662 12.4827 53.8322 12.4827H55.2621C55.4885 12.4827 55.6815 12.3179 55.7169 12.0934L56.5756 6.65834C56.6018 6.49105 56.4719 6.33928 56.3017 6.33928ZM54.0882 9.42991C53.9359 10.3371 53.2149 10.9461 52.2966 10.9461C51.8364 10.9461 51.4669 10.7982 51.2303 10.518C50.9956 10.2397 50.9074 9.84352 50.9811 9.40228C51.1251 8.50282 51.8563 7.87393 52.7606 7.87393C53.2115 7.87393 53.5781 8.02376 53.8196 8.30645C54.0625 8.59204 54.1585 8.99061 54.0882 9.42991Z" fill="#C6FF53"/>
<path d="M58.1734 3.50544L56.8123 12.1644C56.7857 12.3322 56.9156 12.4835 57.0848 12.4835H58.4532C58.6806 12.4835 58.8735 12.3186 58.9085 12.0941L60.2506 3.59126C60.2773 3.4235 60.1473 3.27173 59.9781 3.27173H58.4459C58.3106 3.27221 58.1942 3.37113 58.1734 3.50544Z" fill="#C6FF53"/>
<path d="M3.85634 14.1363L4.10993 12.5255L3.54505 12.5124H0.847656L2.72221 0.62653C2.72802 0.590649 2.74693 0.557192 2.77457 0.533433C2.80221 0.509674 2.83761 0.496582 2.87446 0.496582H7.42264C8.93256 0.496582 9.97457 0.810785 10.5186 1.43095C10.7736 1.72188 10.9361 2.0259 11.0146 2.36046C11.0971 2.71152 11.0985 3.13094 11.018 3.64249L11.0122 3.67982V4.0076L11.2673 4.1521C11.4821 4.26604 11.6527 4.39648 11.7837 4.54582C12.0019 4.79456 12.143 5.11071 12.2026 5.48552C12.2642 5.871 12.2438 6.3297 12.143 6.849C12.0266 7.44638 11.8384 7.96665 11.5844 8.39238C11.3507 8.78465 11.0529 9.11 10.6995 9.36214C10.362 9.60167 9.96099 9.7835 9.50763 9.89987C9.06832 10.0143 8.56744 10.072 8.01807 10.072H7.66411C7.411 10.072 7.16517 10.1632 6.97218 10.3266C6.77872 10.4934 6.65071 10.7213 6.61143 10.9705L6.58476 11.1155L6.13673 13.9544L6.11637 14.0587C6.11104 14.0917 6.10182 14.1082 6.08825 14.1193C6.07613 14.1295 6.05867 14.1363 6.0417 14.1363H3.85634Z" fill="#C6FF53"/>
<path d="M11.5087 3.71753C11.4951 3.80432 11.4796 3.89306 11.4621 3.98421C10.8623 7.06369 8.81031 8.12752 6.18953 8.12752H4.85513C4.53463 8.12752 4.26455 8.36026 4.21461 8.6764L3.53141 13.0093L3.33794 14.2375C3.30546 14.445 3.46547 14.6322 3.67493 14.6322H6.04164C6.3219 14.6322 6.55997 14.4285 6.6041 14.1522L6.62737 14.0319L7.07298 11.2041L7.10159 11.0489C7.14523 10.7716 7.38379 10.5679 7.66405 10.5679H8.01801C10.311 10.5679 12.106 9.63695 12.6307 6.94296C12.8498 5.81755 12.7364 4.87785 12.1565 4.21696C11.9809 4.01767 11.7632 3.85233 11.5087 3.71753Z" fill="#C6FF53"/>
<path d="M10.8815 3.46748C10.7898 3.44082 10.6953 3.41657 10.5983 3.39475C10.5008 3.37342 10.401 3.35451 10.2982 3.33802C9.93838 3.27984 9.54417 3.2522 9.12184 3.2522H5.55699C5.46923 3.2522 5.38583 3.27208 5.31116 3.30796C5.14678 3.38699 5.02459 3.54264 4.99502 3.7332L4.23666 8.53643L4.21484 8.67656C4.26479 8.36042 4.53487 8.12767 4.85537 8.12767H6.18976C8.81054 8.12767 10.8626 7.06336 11.4624 3.98437C11.4803 3.89321 11.4953 3.80448 11.5089 3.71768C11.3571 3.63719 11.1928 3.56834 11.0158 3.50967C10.9721 3.49512 10.927 3.48106 10.8815 3.46748Z" fill="#C6FF53"/>
<path d="M4.99489 3.7331C5.02447 3.54254 5.14666 3.38689 5.31103 3.30834C5.38619 3.27246 5.4691 3.25258 5.55687 3.25258H9.12171C9.54404 3.25258 9.93825 3.28022 10.298 3.3384C10.4008 3.35489 10.5007 3.3738 10.5982 3.39513C10.6951 3.41695 10.7897 3.4412 10.8813 3.46787C10.9269 3.48144 10.972 3.4955 11.0161 3.50957C11.1931 3.56824 11.3575 3.63757 11.5093 3.71758C11.6877 2.57957 11.5078 1.80473 10.8925 1.1031C10.2141 0.330689 8.98982 0 7.42317 0H2.87499C2.55497 0 2.28198 0.232743 2.23252 0.54937L0.338095 12.5574C0.30076 12.795 0.484044 13.0093 0.723575 13.0093H3.53152L4.23654 8.53632L4.99489 3.7331Z" fill="#C6FF53"/>
</g>
<defs>
<clipPath id="clip0_601_10098">
<rect width="60.1212" height="16" fill="white" transform="translate(0.333252)"/>
</clipPath>
</defs>
</svg>
