<svg width="97" height="24" viewBox="0 0 97 24" fill="none" xmlns="http://www.w3.org/2000/svg">
<path d="M31.0424 9.55652C31.0424 8.24474 31.4805 7.233 32.3566 6.52129C33.2327 5.79563 34.4659 5.43279 36.0564 5.43279C37.6603 5.43279 38.9003 5.82354 39.7764 6.60502C40.666 7.37255 41.131 8.4122 41.1714 9.72398H38.8262C38.8127 9.43092 38.7453 9.14485 38.624 8.86574C38.5162 8.58664 38.3477 8.34243 38.1186 8.1331C37.8894 7.92378 37.5929 7.75631 37.229 7.63072C36.8786 7.50512 36.454 7.44233 35.9553 7.44233C35.1466 7.44233 34.4996 7.62374 34.0144 7.98657C33.5427 8.34941 33.3068 8.85179 33.3068 9.49372C33.3068 9.88446 33.3944 10.2124 33.5696 10.4776C33.7448 10.7287 33.9807 10.9451 34.2772 11.1265C34.5872 11.2939 34.9377 11.4335 35.3285 11.5451C35.7194 11.6568 36.1305 11.7614 36.5618 11.8591C37.1279 11.9847 37.7007 12.1173 38.2803 12.2568C38.8599 12.3964 39.3855 12.6057 39.8573 12.8848C40.329 13.1639 40.7131 13.5407 41.0097 14.0152C41.3062 14.4757 41.4544 15.0827 41.4544 15.8363C41.4544 17.1062 41.0231 18.097 40.1605 18.8087C39.3114 19.5204 38.0444 19.8763 36.3596 19.8763C34.594 19.8763 33.2192 19.4925 32.2353 18.725C31.2514 17.9435 30.7594 16.8899 30.7594 15.5642H33.1046C33.2125 16.3038 33.5427 16.876 34.0953 17.2807C34.6479 17.6714 35.3959 17.8668 36.3394 17.8668C37.2155 17.8668 37.9029 17.7063 38.4016 17.3853C38.9003 17.0504 39.1497 16.6038 39.1497 16.0456C39.1497 15.6549 39.0553 15.3339 38.8666 15.0827C38.6914 14.8315 38.4488 14.6292 38.1388 14.4757C37.8423 14.3082 37.4918 14.1757 37.0875 14.078C36.6966 13.9663 36.2855 13.8686 35.8542 13.7849C35.2881 13.6733 34.722 13.5407 34.1559 13.3872C33.5898 13.2337 33.0709 13.0104 32.5992 12.7173C32.1409 12.4103 31.7635 12.0126 31.467 11.5242C31.184 11.0218 31.0424 10.3659 31.0424 9.55652Z" fill="#292929"/>
<path d="M43.9962 4.59549H46.0786V10.7078C46.4829 10.0659 47.0018 9.5635 47.6353 9.20067C48.2823 8.82388 49.0101 8.63549 49.8188 8.63549C50.3984 8.63549 50.9105 8.73317 51.3553 8.92854C51.8136 9.12391 52.1977 9.40301 52.5077 9.76585C52.8312 10.1147 53.0738 10.5334 53.2355 11.0218C53.4108 11.5102 53.4984 12.0405 53.4984 12.6127V19.667H51.3351V13.1988C51.3351 12.4034 51.1262 11.7963 50.7084 11.3777C50.304 10.9451 49.7581 10.7287 49.0707 10.7287C48.6529 10.7287 48.262 10.8334 47.8981 11.0427C47.5342 11.2381 47.2175 11.4963 46.9479 11.8172C46.6918 12.1382 46.4829 12.508 46.3212 12.9267C46.1729 13.3314 46.092 13.743 46.0786 14.1617V19.667H43.9962V4.59549Z" fill="#292929"/>
<path d="M55.6871 14.2454C55.6871 13.45 55.8286 12.7104 56.1116 12.0266C56.3947 11.3428 56.7788 10.7497 57.264 10.2473C57.7493 9.74491 58.3221 9.35417 58.9825 9.07507C59.643 8.78201 60.3573 8.63549 61.1256 8.63549C61.8938 8.63549 62.6082 8.78201 63.2686 9.07507C63.9291 9.35417 64.5019 9.74491 64.9871 10.2473C65.4858 10.7497 65.8767 11.3428 66.1597 12.0266C66.4428 12.7104 66.5843 13.45 66.5843 14.2454C66.5843 15.0269 66.4428 15.7596 66.1597 16.4434C65.8767 17.1272 65.4858 17.7202 64.9871 18.2226C64.5019 18.725 63.9291 19.1227 63.2686 19.4158C62.6082 19.7088 61.8938 19.8554 61.1256 19.8554C60.3573 19.8554 59.643 19.7088 58.9825 19.4158C58.3221 19.1227 57.7493 18.725 57.264 18.2226C56.7788 17.7202 56.3947 17.1272 56.1116 16.4434C55.8286 15.7596 55.6871 15.0269 55.6871 14.2454ZM57.8908 14.2664C57.8908 14.7129 57.9649 15.1455 58.1132 15.5642C58.2749 15.9828 58.4973 16.3526 58.7803 16.6736C59.0634 16.9946 59.4003 17.2527 59.7912 17.4481C60.1956 17.6295 60.6471 17.7202 61.1458 17.7202C61.631 17.7202 62.0691 17.6295 62.4599 17.4481C62.8643 17.2527 63.208 16.9946 63.491 16.6736C63.7741 16.3526 63.9897 15.9828 64.138 15.5642C64.2997 15.1455 64.3806 14.7129 64.3806 14.2664C64.3806 13.8058 64.3064 13.3663 64.1582 12.9476C64.0099 12.515 63.7943 12.1382 63.5112 11.8172C63.2282 11.4963 62.8845 11.2381 62.4801 11.0427C62.0893 10.8474 61.6445 10.7497 61.1458 10.7497C60.6471 10.7497 60.1956 10.8474 59.7912 11.0427C59.4003 11.2381 59.0634 11.4963 58.7803 11.8172C58.4973 12.1382 58.2749 12.515 58.1132 12.9476C57.9649 13.3663 57.8908 13.8058 57.8908 14.2664Z" fill="#292929"/>
<path d="M68.7744 24V8.84481H70.8568V10.4148C71.2072 9.85655 71.6655 9.42395 72.2316 9.11694C72.8112 8.79597 73.539 8.63549 74.4151 8.63549C75.1564 8.63549 75.8438 8.78201 76.4773 9.07507C77.1107 9.35417 77.6566 9.75189 78.1149 10.2682C78.5731 10.7706 78.9303 11.3637 79.1864 12.0475C79.4425 12.7313 79.5705 13.4709 79.5705 14.2664C79.5705 15.0478 79.4425 15.7805 79.1864 16.4643C78.9303 17.1341 78.5731 17.7202 78.1149 18.2226C77.6566 18.725 77.1107 19.1227 76.4773 19.4158C75.8573 19.7088 75.1699 19.8554 74.4151 19.8554C73.539 19.8554 72.8112 19.7019 72.2316 19.3949C71.6655 19.0739 71.2072 18.6413 70.8568 18.097V24H68.7744ZM70.8568 13.6593V14.8943C70.9107 15.2851 71.0253 15.6549 71.2005 16.0038C71.3757 16.3387 71.6049 16.6387 71.8879 16.9039C72.1709 17.1551 72.4944 17.3574 72.8583 17.5109C73.2357 17.6505 73.6468 17.7202 74.0916 17.7202C74.6038 17.7202 75.062 17.6295 75.4664 17.4481C75.8707 17.2527 76.2144 16.9946 76.4975 16.6736C76.7805 16.3526 76.9962 15.9898 77.1444 15.5851C77.3062 15.1665 77.3871 14.7269 77.3871 14.2664C77.3871 13.8058 77.3062 13.3663 77.1444 12.9476C76.9962 12.515 76.7805 12.1382 76.4975 11.8172C76.2144 11.4823 75.8707 11.2242 75.4664 11.0427C75.062 10.8474 74.6038 10.7497 74.0916 10.7497C73.6468 10.7497 73.2357 10.8264 72.8583 10.9799C72.4809 11.1334 72.1507 11.3428 71.8677 11.6079C71.5981 11.8591 71.3757 12.1661 71.2005 12.529C71.0253 12.8778 70.9107 13.2546 70.8568 13.6593Z" fill="#292929"/>
<path d="M91.8143 19.667H89.7319V18.097C89.3814 18.6413 88.9164 19.0739 88.3369 19.3949C87.7708 19.7019 87.0497 19.8554 86.1736 19.8554C85.4323 19.8554 84.7449 19.7088 84.1114 19.4158C83.4779 19.1227 82.9321 18.725 82.4738 18.2226C82.0155 17.7202 81.6584 17.1341 81.4023 16.4643C81.1462 15.7805 81.0181 15.0478 81.0181 14.2664C81.0181 13.4709 81.1462 12.7313 81.4023 12.0475C81.6584 11.3637 82.0155 10.7706 82.4738 10.2682C82.9321 9.75189 83.4779 9.35417 84.1114 9.07507C84.7449 8.78201 85.4323 8.63549 86.1736 8.63549C87.0497 8.63549 87.7708 8.79597 88.3369 9.11694C88.9164 9.42395 89.3814 9.85655 89.7319 10.4148V8.84481H91.8143V19.667ZM89.7319 13.6593C89.678 13.2546 89.5634 12.8778 89.3882 12.529C89.213 12.1661 88.9838 11.8591 88.7008 11.6079C88.4177 11.3428 88.0875 11.1334 87.7101 10.9799C87.3327 10.8264 86.9216 10.7497 86.4769 10.7497C85.9647 10.7497 85.5064 10.8474 85.1021 11.0427C84.6977 11.2242 84.354 11.4823 84.071 11.8172C83.7879 12.1382 83.5723 12.515 83.424 12.9476C83.2758 13.3663 83.2016 13.8058 83.2016 14.2664C83.2016 14.7269 83.2758 15.1665 83.424 15.5851C83.5858 15.9898 83.8082 16.3526 84.0912 16.6736C84.3742 16.9946 84.7179 17.2527 85.1223 17.4481C85.5266 17.6295 85.9782 17.7202 86.4769 17.7202C86.9216 17.7202 87.3327 17.6505 87.7101 17.5109C88.0875 17.3574 88.4177 17.1551 88.7008 16.9039C88.9838 16.6387 89.213 16.3387 89.3882 16.0038C89.5634 15.6549 89.678 15.2851 89.7319 14.8943V13.6593Z" fill="#292929"/>
<path d="M94.7175 4.59549H96.7999V19.667H94.7175V4.59549Z" fill="#292929"/>
<path fill-rule="evenodd" clip-rule="evenodd" d="M11.5237 1.88394C11.5237 1.53711 11.7952 1.25596 12.1302 1.25596C12.4652 1.25596 12.7367 1.53711 12.7367 1.88394C12.7367 2.23076 12.4652 2.51191 12.1302 2.51191C11.7952 2.51191 11.5237 2.23076 11.5237 1.88394ZM12.1302 0C11.1253 0 10.3106 0.843467 10.3106 1.88394C10.3106 2.15901 10.3676 2.42031 10.4699 2.6559L7.22609 6.49425C7.00551 6.75526 7.03106 7.15199 7.28315 7.38038C7.53524 7.60876 7.91842 7.58231 8.139 7.3213L11.3118 3.56701C11.5578 3.6955 11.8358 3.76787 12.1302 3.76787C12.4276 3.76787 12.7084 3.69399 12.9563 3.56298L16.2289 7.32787C16.453 7.58566 16.8365 7.60656 17.0855 7.37454C17.3345 7.14253 17.3546 6.74547 17.1306 6.48768L13.7936 2.64876C13.894 2.41504 13.9498 2.15623 13.9498 1.88394C13.9498 0.843467 13.1351 0 12.1302 0ZM5.96414 16.3274C5.96414 15.9806 6.23569 15.6995 6.57066 15.6995H18.1957C18.5307 15.6995 18.8022 15.9806 18.8022 16.3274C18.8022 16.6743 18.5307 16.9554 18.1957 16.9554H6.57066C6.23569 16.9554 5.96414 16.6743 5.96414 16.3274ZM5.76184 12.5595C5.42686 12.5595 5.15531 12.8407 5.15531 13.1875C5.15531 13.5343 5.42686 13.8155 5.76184 13.8155H19.0043C19.3393 13.8155 19.6108 13.5343 19.6108 13.1875C19.6108 12.8407 19.3393 12.5595 19.0043 12.5595H5.76184ZM6.67172 19.4673C6.67172 19.1205 6.94327 18.8394 7.27824 18.8394H17.4881C17.823 18.8394 18.0946 19.1205 18.0946 19.4673C18.0946 19.8142 17.823 20.0953 17.4881 20.0953H7.27824C6.94327 20.0953 6.67172 19.8142 6.67172 19.4673ZM2.52718 8.68702C1.20232 8.68702 0 9.78415 0 11.3036V11.9316C0 12.9388 0.551958 13.8145 1.4144 14.2698C1.66665 15.1965 1.88151 16.0138 2.07502 16.7499L2.07503 16.7499C2.22219 17.3097 2.35701 17.8225 2.48653 18.3008C2.79556 19.4419 3.06484 20.3494 3.36289 21.0437C3.66226 21.7411 4.01875 22.2926 4.54055 22.6535C5.06625 23.0171 5.67722 23.1305 6.3685 23.1305H17.9936C18.7112 23.1305 19.3368 23.0102 19.8683 22.6359C20.3958 22.2644 20.748 21.7006 21.04 20.9975C21.3307 20.2976 21.5901 19.3871 21.8906 18.2533C21.98 17.916 22.0734 17.5574 22.1729 17.1756L22.173 17.1752C22.3911 16.338 22.6384 15.3887 22.9368 14.3051C23.8403 13.9122 24.3621 12.9899 24.3621 11.9316V11.3036C24.3621 9.93187 23.3024 8.68702 21.8349 8.68702H2.52718ZM1.21305 11.3036C1.21305 10.5205 1.8303 9.94298 2.52718 9.94298H21.8349C22.5913 9.94298 23.149 10.5821 23.149 11.3036V11.9316C23.149 12.6277 22.7953 13.0766 22.2943 13.2063C22.0844 13.2606 21.9184 13.4265 21.8585 13.6418C21.5175 14.8685 21.2388 15.9384 20.9989 16.8593L20.9988 16.8595C20.9001 17.2383 20.808 17.592 20.7208 17.9209C20.418 19.0635 20.1783 19.893 19.9256 20.5014C19.6743 21.1066 19.4389 21.4193 19.1861 21.5974C18.9374 21.7725 18.59 21.8746 17.9936 21.8746H6.3685C5.7962 21.8746 5.45947 21.7787 5.21438 21.6091C4.96539 21.4369 4.728 21.1314 4.47138 20.5336C4.21345 19.9328 3.96466 19.1068 3.65453 17.9617C3.5324 17.5107 3.39893 17.0033 3.25179 16.4438L3.25172 16.4435C3.03478 15.6187 2.78811 14.6808 2.50418 13.6442C2.4516 13.4522 2.31406 13.2976 2.13362 13.2275C1.54485 12.9989 1.21305 12.489 1.21305 11.9316V11.3036Z" fill="#AFFF0F"/>
</svg>
