<svg width="130" height="32" viewBox="0 0 130 32" fill="none" xmlns="http://www.w3.org/2000/svg">
<path d="M41.3901 12.742C41.3901 10.993 41.9741 9.644 43.1423 8.69505C44.3104 7.7275 45.9547 7.24373 48.0753 7.24373C50.2139 7.24373 51.8672 7.76472 53.0354 8.80669C54.2214 9.83007 54.8414 11.2163 54.8954 12.9653H51.7684C51.7504 12.5746 51.6606 12.1931 51.4988 11.821C51.3551 11.4489 51.1304 11.1232 50.8249 10.8441C50.5194 10.565 50.124 10.3418 49.6388 10.1743C49.1716 10.0068 48.6055 9.9231 47.9406 9.9231C46.8623 9.9231 45.9997 10.165 45.3527 10.6488C44.7237 11.1325 44.4092 11.8024 44.4092 12.6583C44.4092 13.1793 44.526 13.6165 44.7597 13.9701C44.9933 14.305 45.3078 14.5934 45.7031 14.8353C46.1165 15.0586 46.5837 15.2446 47.1049 15.3935C47.6261 15.5423 48.1742 15.6819 48.7492 15.8121C49.504 15.9796 50.2678 16.1564 51.0406 16.3424C51.8133 16.5285 52.5142 16.8076 53.1432 17.1797C53.7722 17.5519 54.2843 18.0543 54.6797 18.6869C55.0751 19.3009 55.2728 20.1103 55.2728 21.1151C55.2728 22.8083 54.6977 24.1294 53.5475 25.0783C52.4154 26.0273 50.7261 26.5017 48.4797 26.5017C46.1255 26.5017 44.2924 25.99 42.9805 24.9667C41.6686 23.9247 41.0127 22.5199 41.0127 20.7522H44.1397C44.2834 21.7384 44.7237 22.5013 45.4605 23.0409C46.1974 23.5619 47.1948 23.8224 48.4527 23.8224C49.6208 23.8224 50.5374 23.6084 51.2023 23.1804C51.8672 22.7339 52.1997 22.1384 52.1997 21.3942C52.1997 20.8732 52.0739 20.4452 51.8223 20.1103C51.5887 19.7754 51.2652 19.5056 50.8519 19.3009C50.4565 19.0776 49.9893 18.9009 49.4501 18.7706C48.929 18.6218 48.3808 18.4915 47.8058 18.3799C47.051 18.231 46.2962 18.0543 45.5414 17.8496C44.7866 17.6449 44.0947 17.3472 43.4657 16.9565C42.8547 16.5471 42.3515 16.0168 41.9562 15.3656C41.5788 14.6957 41.3901 13.8212 41.3901 12.742Z" fill="white"/>
<path d="M58.6617 6.12732H61.4382V14.2771C61.9774 13.4212 62.6693 12.7513 63.5139 12.2676C64.3765 11.7652 65.347 11.514 66.4252 11.514C67.198 11.514 67.8809 11.6442 68.4739 11.9047C69.0849 12.1652 69.5971 12.5374 70.0105 13.0211C70.4418 13.4863 70.7652 14.0445 70.9809 14.6957C71.2145 15.347 71.3313 16.054 71.3313 16.8169V26.2226H68.447V17.5984C68.447 16.5378 68.1684 15.7284 67.6113 15.1702C67.0722 14.5934 66.3443 14.305 65.4278 14.305C64.8707 14.305 64.3496 14.4445 63.8643 14.7236C63.3791 14.9841 62.9568 15.3284 62.5974 15.7563C62.2559 16.1843 61.9774 16.6774 61.7617 17.2356C61.564 17.7752 61.4562 18.3241 61.4382 18.8823V26.2226H58.6617V6.12732Z" fill="white"/>
<path d="M74.2496 18.9939C74.2496 17.9333 74.4383 16.9472 74.8157 16.0354C75.1931 15.1237 75.7052 14.3329 76.3522 13.6631C76.9992 12.9932 77.7629 12.4722 78.6435 12.1001C79.5241 11.7094 80.4766 11.514 81.5009 11.514C82.5253 11.514 83.4777 11.7094 84.3583 12.1001C85.2389 12.4722 86.0027 12.9932 86.6496 13.6631C87.3146 14.3329 87.8357 15.1237 88.2131 16.0354C88.5905 16.9472 88.7792 17.9333 88.7792 18.9939C88.7792 20.0359 88.5905 21.0127 88.2131 21.9245C87.8357 22.8362 87.3146 23.627 86.6496 24.2968C86.0027 24.9667 85.2389 25.497 84.3583 25.8877C83.4777 26.2785 82.5253 26.4738 81.5009 26.4738C80.4766 26.4738 79.5241 26.2785 78.6435 25.8877C77.7629 25.497 76.9992 24.9667 76.3522 24.2968C75.7052 23.627 75.1931 22.8362 74.8157 21.9245C74.4383 21.0127 74.2496 20.0359 74.2496 18.9939ZM77.1879 19.0218C77.1879 19.6172 77.2867 20.194 77.4844 20.7522C77.7 21.3104 77.9966 21.8035 78.374 22.2315C78.7514 22.6594 79.2006 23.0037 79.7218 23.2642C80.2609 23.506 80.863 23.627 81.5279 23.627C82.1748 23.627 82.7589 23.506 83.2801 23.2642C83.8192 23.0037 84.2775 22.6594 84.6548 22.2315C85.0322 21.8035 85.3198 21.3104 85.5175 20.7522C85.7331 20.194 85.8409 19.6172 85.8409 19.0218C85.8409 18.4078 85.7421 17.8217 85.5444 17.2635C85.3467 16.6867 85.0592 16.1843 84.6818 15.7563C84.3044 15.3284 83.8461 14.9841 83.307 14.7236C82.7859 14.4632 82.1928 14.3329 81.5279 14.3329C80.863 14.3329 80.2609 14.4632 79.7218 14.7236C79.2006 14.9841 78.7514 15.3284 78.374 15.7563C77.9966 16.1843 77.7 16.6867 77.4844 17.2635C77.2867 17.8217 77.1879 18.4078 77.1879 19.0218Z" fill="white"/>
<path d="M91.6994 32V11.7931H94.4759V13.8863C94.9432 13.1421 95.5542 12.5653 96.309 12.1559C97.0817 11.728 98.0522 11.514 99.2203 11.514C100.209 11.514 101.125 11.7094 101.97 12.1001C102.814 12.4722 103.542 13.0025 104.153 13.691C104.764 14.3608 105.241 15.1516 105.582 16.0633C105.923 16.9751 106.094 17.9612 106.094 19.0218C106.094 20.0638 105.923 21.0406 105.582 21.9524C105.241 22.8455 104.764 23.627 104.153 24.2968C103.542 24.9667 102.814 25.497 101.97 25.8877C101.143 26.2785 100.227 26.4738 99.2203 26.4738C98.0522 26.4738 97.0817 26.2692 96.309 25.8598C95.5542 25.4318 94.9432 24.855 94.4759 24.1294V32H91.6994ZM94.4759 18.2124V19.8591C94.5478 20.3801 94.7005 20.8732 94.9342 21.3384C95.1678 21.7849 95.4733 22.185 95.8507 22.5385C96.2281 22.8734 96.6594 23.1432 97.1446 23.3479C97.6478 23.534 98.1959 23.627 98.789 23.627C99.4719 23.627 100.083 23.506 100.622 23.2642C101.161 23.0037 101.619 22.6594 101.997 22.2315C102.374 21.8035 102.662 21.3197 102.859 20.7802C103.075 20.2219 103.183 19.6358 103.183 19.0218C103.183 18.4078 103.075 17.8217 102.859 17.2635C102.662 16.6867 102.374 16.1843 101.997 15.7563C101.619 15.3098 101.161 14.9655 100.622 14.7236C100.083 14.4632 99.4719 14.3329 98.789 14.3329C98.1959 14.3329 97.6478 14.4352 97.1446 14.6399C96.6414 14.8446 96.2011 15.1237 95.8237 15.4772C95.4643 15.8121 95.1678 16.2215 94.9342 16.7053C94.7005 17.1704 94.5478 17.6728 94.4759 18.2124Z" fill="white"/>
<path d="M122.419 26.2226H119.643V24.1294C119.175 24.855 118.555 25.4318 117.783 25.8598C117.028 26.2692 116.066 26.4738 114.898 26.4738C113.91 26.4738 112.993 26.2785 112.149 25.8877C111.304 25.497 110.576 24.9667 109.965 24.2968C109.354 23.627 108.878 22.8455 108.537 21.9524C108.195 21.0406 108.024 20.0638 108.024 19.0218C108.024 17.9612 108.195 16.9751 108.537 16.0633C108.878 15.1516 109.354 14.3608 109.965 13.691C110.576 13.0025 111.304 12.4722 112.149 12.1001C112.993 11.7094 113.91 11.514 114.898 11.514C116.066 11.514 117.028 11.728 117.783 12.1559C118.555 12.5653 119.175 13.1421 119.643 13.8863V11.7931H122.419V26.2226ZM119.643 18.2124C119.571 17.6728 119.418 17.1704 119.184 16.7053C118.951 16.2215 118.645 15.8121 118.268 15.4772C117.89 15.1237 117.45 14.8446 116.947 14.6399C116.444 14.4352 115.896 14.3329 115.303 14.3329C114.62 14.3329 114.009 14.4632 113.47 14.7236C112.93 14.9655 112.472 15.3098 112.095 15.7563C111.717 16.1843 111.43 16.6867 111.232 17.2635C111.035 17.8217 110.936 18.4078 110.936 19.0218C110.936 19.6358 111.035 20.2219 111.232 20.7802C111.448 21.3197 111.744 21.8035 112.122 22.2315C112.499 22.6594 112.957 23.0037 113.497 23.2642C114.036 23.506 114.638 23.627 115.303 23.627C115.896 23.627 116.444 23.534 116.947 23.3479C117.45 23.1432 117.89 22.8734 118.268 22.5385C118.645 22.185 118.951 21.7849 119.184 21.3384C119.418 20.8732 119.571 20.3801 119.643 19.8591V18.2124Z" fill="white"/>
<path d="M126.29 6.12732H129.067V26.2226H126.29V6.12732Z" fill="white"/>
<path fill-rule="evenodd" clip-rule="evenodd" d="M15.365 2.51192C15.365 2.04948 15.727 1.67461 16.1737 1.67461C16.6203 1.67461 16.9824 2.04948 16.9824 2.51192C16.9824 2.97435 16.6203 3.34922 16.1737 3.34922C15.727 3.34922 15.365 2.97435 15.365 2.51192ZM16.1737 0C14.8338 0 13.7476 1.12462 13.7476 2.51192C13.7476 2.87867 13.8235 3.22707 13.9599 3.54119L9.63484 8.659C9.34073 9.00701 9.37479 9.53599 9.71091 9.8405C10.047 10.145 10.5579 10.1097 10.8521 9.76173L15.0824 4.756C15.4104 4.92733 15.7812 5.02383 16.1737 5.02383C16.5702 5.02383 16.9445 4.92532 17.2751 4.75065L21.6386 9.77049C21.9374 10.1142 22.4487 10.1421 22.7807 9.83272C23.1126 9.52337 23.1396 8.99396 22.8408 8.65023L18.3915 3.5317C18.5254 3.22007 18.5998 2.87499 18.5998 2.51192C18.5998 1.12462 17.5135 0 16.1737 0ZM7.95215 21.7699C7.95215 21.3075 8.31422 20.9326 8.76085 20.9326H24.2609C24.7075 20.9326 25.0696 21.3075 25.0696 21.7699C25.0696 22.2324 24.7075 22.6072 24.2609 22.6072H8.76085C8.31422 22.6072 7.95215 22.2324 7.95215 21.7699ZM7.6824 16.7461C7.23576 16.7461 6.8737 17.1209 6.8737 17.5834C6.8737 18.0458 7.23576 18.4207 7.6824 18.4207H25.339C25.7856 18.4207 26.1477 18.0458 26.1477 17.5834C26.1477 17.1209 25.7856 16.7461 25.339 16.7461H7.6824ZM8.89567 25.9564C8.89567 25.494 9.25774 25.1191 9.70437 25.1191H23.3175C23.7641 25.1191 24.1262 25.494 24.1262 25.9564C24.1262 26.4189 23.7641 26.7938 23.3175 26.7938H9.70437C9.25774 26.7938 8.89567 26.4189 8.89567 25.9564ZM3.36958 11.5827C1.60309 11.5827 0 13.0455 0 15.0715V15.9088C0 17.2517 0.735944 18.4193 1.88586 19.0264C2.2222 20.262 2.50868 21.3517 2.76669 22.3332L2.76671 22.3332C2.96293 23.0796 3.14268 23.7634 3.31537 24.401C3.72741 25.9225 4.08645 27.1325 4.48385 28.0583C4.88301 28.9882 5.35833 29.7234 6.05407 30.2047C6.755 30.6895 7.56963 30.8407 8.49134 30.8407H23.9914C24.9483 30.8407 25.7824 30.6802 26.4911 30.1811C27.1944 29.6858 27.664 28.9341 28.0534 27.9967C28.4409 27.0635 28.7868 25.8494 29.1875 24.3377C29.3067 23.8881 29.4312 23.4103 29.5637 22.9013L29.564 22.9003C29.8548 21.784 30.1845 20.5182 30.5825 19.0734C31.7871 18.5496 32.4827 17.3199 32.4827 15.9088V15.0715C32.4827 13.2425 31.0699 11.5827 29.1132 11.5827H3.36958ZM1.6174 15.0715C1.6174 14.0273 2.44041 13.2573 3.36958 13.2573H29.1132C30.1217 13.2573 30.8653 14.1094 30.8653 15.0715V15.9088C30.8653 16.8369 30.3937 17.4355 29.7257 17.6084C29.4459 17.6808 29.2245 17.9021 29.1447 18.189C28.69 19.8246 28.3184 21.2511 27.9985 22.4789L27.9984 22.4793L27.9983 22.4799C27.8668 22.9848 27.744 23.4561 27.6278 23.8945C27.224 25.418 26.9044 26.5239 26.5675 27.3352C26.2324 28.1421 25.9185 28.5591 25.5815 28.7965C25.2499 29.03 24.7867 29.1661 23.9914 29.1661H8.49134C7.72826 29.1661 7.27929 29.0382 6.95251 28.8122C6.62052 28.5826 6.30399 28.1752 5.96185 27.3782C5.61794 26.577 5.28622 25.4758 4.8727 23.9489C4.70985 23.3476 4.53189 22.6709 4.33568 21.9249L4.33563 21.9247C4.04638 20.825 3.71748 19.5744 3.3389 18.1922C3.2688 17.9363 3.08541 17.7301 2.84483 17.6367C2.0598 17.3319 1.6174 16.652 1.6174 15.9088V15.0715Z" fill="#AFFF0F"/>
</svg>
