<svg width="50" height="16" viewBox="0 0 50 16" fill="none" xmlns="http://www.w3.org/2000/svg">
<g clip-path="url(#clip0_601_10082)">
<path d="M21.32 15.7692H17.3345L19.8273 0.280762H23.8126L21.32 15.7692Z" fill="#C6FF53"/>
<path d="M35.7678 0.659404C34.9817 0.346018 33.7348 0 32.1931 0C28.2572 0 25.4856 2.10895 25.4686 5.12412C25.4359 7.3487 27.453 8.58429 28.9616 9.32604C30.5036 10.084 31.0277 10.5787 31.0277 11.2543C31.012 12.2919 29.7817 12.7702 28.6343 12.7702C27.0431 12.7702 26.1905 12.5236 24.8948 11.9464L24.37 11.6989L23.8123 15.1757C24.747 15.6036 26.4692 15.9834 28.2572 16C32.4391 16 35.1617 13.9237 35.194 10.7105C35.2099 8.94739 34.1448 7.59639 31.8485 6.49242C30.4545 5.78374 29.6009 5.30589 29.6009 4.58079C29.6172 3.9216 30.3229 3.24643 31.8965 3.24643C33.1921 3.21336 34.1441 3.52631 34.8653 3.83948L35.2258 4.00394L35.7678 0.659404Z" fill="#C6FF53"/>
<path d="M41.065 10.2822C41.3932 9.3924 42.6562 5.94865 42.6562 5.94865C42.6396 5.98172 42.9837 5.04244 43.1806 4.46582L43.4591 5.80039C43.4591 5.80039 44.2138 9.50781 44.3777 10.2822C43.7548 10.2822 41.8522 10.2822 41.065 10.2822ZM45.9846 0.280762H42.9018C41.9511 0.280762 41.2289 0.560641 40.8187 1.56584L34.8987 15.769H39.0806C39.0806 15.769 39.7691 13.8573 39.9171 13.4456C40.3758 13.4456 44.444 13.4456 45.0342 13.4456C45.1486 13.9894 45.5097 15.769 45.5097 15.769H49.1999L45.9846 0.280762Z" fill="#C6FF53"/>
<path d="M14.0057 0.280762L10.1026 10.8424L9.67605 8.70037C8.95444 6.22875 6.69131 3.5434 4.16577 2.20817L7.74093 15.7528H11.9555L18.2201 0.280762H14.0057Z" fill="#C6FF53"/>
<path d="M6.47838 0.280762H0.0656053L0 0.593731C5.00237 1.87912 8.31534 4.97749 9.67649 8.70158L8.28243 1.58279C8.05292 0.593512 7.3476 0.313395 6.47838 0.280762Z" fill="#C6FF53"/>
</g>
<defs>
<clipPath id="clip0_601_10082">
<rect width="49.2" height="16" fill="white"/>
</clipPath>
</defs>
</svg>
