<svg width="74" height="24" viewBox="0 0 74 24" fill="none" xmlns="http://www.w3.org/2000/svg">
<g clip-path="url(#clip0_601_10445)">
<path d="M31.9798 23.6538H26.0015L29.7407 0.421143H35.7187L31.9798 23.6538Z" fill="#474BC5"/>
<path d="M53.6521 0.989106C52.4729 0.519026 50.6026 0 48.29 0C42.3862 0 38.2288 3.16343 38.2033 7.68618C38.1543 11.0231 41.1799 12.8764 43.4428 13.9891C45.7557 15.126 46.542 15.8681 46.542 16.8815C46.5184 18.4379 44.673 19.1553 42.9518 19.1553C40.565 19.1553 39.2861 18.7854 37.3425 17.9195L36.5553 17.5483L35.7188 22.7636C37.1209 23.4054 39.7042 23.975 42.3862 24C48.6591 24 52.7429 20.8855 52.7913 16.0658C52.8152 13.4211 51.2175 11.3946 47.7731 9.73863C45.6822 8.67561 44.4017 7.95883 44.4017 6.87118C44.4262 5.8824 45.4847 4.86964 47.8451 4.86964C49.7886 4.82004 51.2165 5.28946 52.2983 5.75921L52.839 6.00592L53.6521 0.989106Z" fill="#474BC5"/>
<path d="M61.5976 15.4233C62.0899 14.0886 63.9844 8.92298 63.9844 8.92298C63.9595 8.97258 64.4757 7.56366 64.7709 6.69872L65.1887 8.70059C65.1887 8.70059 66.3209 14.2617 66.5667 15.4233C65.6324 15.4233 62.7784 15.4233 61.5976 15.4233ZM68.977 0.421143H64.3528C62.9268 0.421143 61.8434 0.840962 61.2282 2.34876L52.3481 23.6535H58.621C58.621 23.6535 59.6537 20.786 59.8757 20.1684C60.5639 20.1684 66.6661 20.1684 67.5514 20.1684C67.723 20.9841 68.2647 23.6535 68.2647 23.6535H73.8L68.977 0.421143Z" fill="#474BC5"/>
<path d="M21.009 0.421143L15.1542 16.2636L14.5144 13.0505C13.432 9.34313 10.0373 5.3151 6.24902 3.31225L11.6118 23.6291H17.9337L27.3305 0.421143H21.009Z" fill="#474BC5"/>
<path d="M9.71758 0.421143H0.0984079L0 0.890596C7.50355 2.81867 12.473 7.46623 14.5147 13.0524L12.4236 2.37419C12.0794 0.890268 11.0214 0.470092 9.71758 0.421143Z" fill="#474BC5"/>
</g>
<defs>
<clipPath id="clip0_601_10445">
<rect width="73.8" height="24" fill="white"/>
</clipPath>
</defs>
</svg>
