<svg width="65" height="31" viewBox="0 0 65 31" fill="none" xmlns="http://www.w3.org/2000/svg">
<path d="M2.01172 1.00566C2.01172 1.56172 1.56214 2.01129 1.00609 2.01129C0.450028 2.01129 0.000446899 1.56172 0.000446947 1.00566C0.000446996 0.449605 0.450028 1.94768e-05 1.00609 1.95254e-05C1.56214 1.9574e-05 2.01172 0.449605 2.01172 1.00566Z" fill="#75BBFF"/>
<path d="M17.7588 1.00566C17.7588 1.56172 17.3092 2.01129 16.7532 2.01129C16.1971 2.01129 15.7475 1.56172 15.7475 1.00566C15.7475 0.449605 16.1971 1.94768e-05 16.7532 1.95254e-05C17.3092 1.9574e-05 17.7588 0.449605 17.7588 1.00566Z" fill="#75BBFF"/>
<path d="M33.5068 1.00566C33.5068 1.56172 33.0573 2.01129 32.5012 2.01129C31.9451 2.01129 31.4956 1.56172 31.4956 1.00566C31.4956 0.449605 31.9451 1.94768e-05 32.5012 1.95254e-05C33.0573 1.9574e-05 33.5068 0.449605 33.5068 1.00566Z" fill="#75BBFF"/>
<path d="M49.252 1.00566C49.252 1.56172 48.8024 2.01129 48.2463 2.01129C47.6903 2.01129 47.2407 1.56172 47.2407 1.00566C47.2407 0.449605 47.6903 1.94768e-05 48.2463 1.95254e-05C48.8024 1.9574e-05 49.252 0.449605 49.252 1.00566Z" fill="#75BBFF"/>
<path d="M65 1.0056C65 1.56166 64.5504 2.01123 63.9944 2.01123C63.4383 2.01123 62.9887 1.56166 62.9887 1.0056C62.9887 0.449544 63.4383 -4.15584e-05 63.9944 -4.15098e-05C64.5504 -4.14612e-05 65 0.449544 65 1.0056Z" fill="#75BBFF"/>
<path d="M2.01172 15.0824C2.01172 15.6385 1.56214 16.0881 1.00609 16.0881C0.450028 16.0881 0.000446899 15.6385 0.000446947 15.0824C0.000446996 14.5264 0.450028 14.0768 1.00609 14.0768C1.56214 14.0768 2.01172 14.5264 2.01172 15.0824Z" fill="#75BBFF"/>
<path d="M17.7588 15.0824C17.7588 15.6385 17.3092 16.0881 16.7532 16.0881C16.1971 16.0881 15.7475 15.6385 15.7475 15.0824C15.7475 14.5264 16.1971 14.0768 16.7532 14.0768C17.3092 14.0768 17.7588 14.5264 17.7588 15.0824Z" fill="#75BBFF"/>
<path d="M33.5068 15.0824C33.5068 15.6385 33.0573 16.0881 32.5012 16.0881C31.9451 16.0881 31.4956 15.6385 31.4956 15.0824C31.4956 14.5264 31.9451 14.0768 32.5012 14.0768C33.0573 14.0768 33.5068 14.5264 33.5068 15.0824Z" fill="#75BBFF"/>
<path d="M49.252 15.0824C49.252 15.6385 48.8024 16.0881 48.2463 16.0881C47.6903 16.0881 47.2407 15.6385 47.2407 15.0824C47.2407 14.5264 47.6903 14.0768 48.2463 14.0768C48.8024 14.0768 49.252 14.5264 49.252 15.0824Z" fill="#75BBFF"/>
<path d="M65 15.0823C65 15.6383 64.5504 16.0879 63.9944 16.0879C63.4383 16.0879 62.9887 15.6383 62.9887 15.0823C62.9887 14.5262 63.4383 14.0766 63.9944 14.0766C64.5504 14.0766 65 14.5262 65 15.0823Z" fill="#75BBFF"/>
<path d="M2.01172 29.1508C2.01172 29.7069 1.56214 30.1564 1.00609 30.1564C0.450028 30.1564 0.000446899 29.7069 0.000446947 29.1508C0.000446996 28.5947 0.450028 28.1452 1.00609 28.1452C1.56214 28.1452 2.01172 28.5947 2.01172 29.1508Z" fill="#75BBFF"/>
<path d="M16.7532 28.1452C16.1978 28.1452 15.7475 28.5954 15.7475 29.1508C15.7475 29.7062 16.1978 30.1564 16.7532 30.1564C17.3085 30.1564 17.7588 29.7062 17.7588 29.1508C17.7588 28.5954 17.3085 28.1452 16.7532 28.1452Z" fill="#75BBFF"/>
<path d="M32.5012 28.1452C31.9458 28.1452 31.4956 28.5955 31.4956 29.1509C31.4956 29.7063 31.9458 30.1565 32.5012 30.1565C33.0566 30.1565 33.5068 29.7063 33.5068 29.1509C33.5068 28.5955 33.0566 28.1452 32.5012 28.1452Z" fill="#75BBFF"/>
<path d="M49.252 29.1509C49.252 29.7069 48.8024 30.1565 48.2463 30.1565C47.6903 30.1565 47.2407 29.7069 47.2407 29.1509C47.2407 28.5948 47.6903 28.1452 48.2463 28.1452C48.8024 28.1452 49.252 28.5948 49.252 29.1509Z" fill="#75BBFF"/>
<path d="M65 29.1509C65 29.707 64.5504 30.1566 63.9944 30.1566C63.4383 30.1566 62.9887 29.707 62.9887 29.1509C62.9887 28.5949 63.4383 28.1453 63.9944 28.1453C64.5504 28.1453 65 28.5949 65 29.1509Z" fill="#75BBFF"/>
</svg>
