<svg width="48" height="368" viewBox="0 0 48 368" fill="none" xmlns="http://www.w3.org/2000/svg">
<path d="M47.2744 2.69212L1.14441e-05 49.9665V47.2744L47.2744 0V2.69212Z" fill="#C6FF53"/>
<path d="M47.2744 27.1669L1.14441e-05 74.4413V71.7301L47.2744 24.4557V27.1669Z" fill="#C6FF53"/>
<path d="M47.2744 51.6256L1.14441e-05 98.9V96.2079L47.2744 48.9335V51.6256Z" fill="#C6FF53"/>
<path d="M47.2744 76.0882L1.14441e-05 123.363V120.671L47.2744 73.3961V76.0882Z" fill="#C6FF53"/>
<path d="M47.2744 100.563L1.14441e-05 147.837V145.126L47.2744 97.8517V100.563Z" fill="#C6FF53"/>
<path d="M47.2744 125.022L1.14441e-05 172.296V169.604L47.2744 122.33V125.022Z" fill="#C6FF53"/>
<path d="M47.2744 149.477L1.14441e-05 196.751V194.059L47.2744 146.785V149.477Z" fill="#C6FF53"/>
<path d="M47.2744 173.96L1.14441e-05 221.234V218.523L47.2744 171.248V173.96Z" fill="#C6FF53"/>
<path d="M47.2744 198.415L1.14441e-05 245.689V242.978L47.2744 195.703V198.415Z" fill="#C6FF53"/>
<path d="M47.2744 222.874L1.14441e-05 270.148V267.456L47.2744 220.182V222.874Z" fill="#C6FF53"/>
<path d="M47.2744 247.33L1.14441e-05 294.604V291.912L47.2744 244.637V247.33Z" fill="#C6FF53"/>
<path d="M47.2744 271.811L1.14441e-05 319.086V316.374L47.2744 269.1V271.811Z" fill="#C6FF53"/>
<path d="M47.2744 296.27L1.14441e-05 343.544V340.852L47.2744 293.578V296.27Z" fill="#C6FF53"/>
<path d="M47.2744 320.726L1.14441e-05 368V365.308L47.2744 318.033V320.726Z" fill="#C6FF53"/>
</svg>
