<svg width="102" height="416" viewBox="0 0 102 416" fill="none" xmlns="http://www.w3.org/2000/svg">
<path d="M102 -89.6121L-7.62939e-06 12.3879V6.57933L102 -95.4207V-89.6121Z" fill="#C6FF53"/>
<path d="M102 -36.8309L-7.62939e-06 65.1691V59.3605L102 -42.6395V-36.8309Z" fill="#C6FF53"/>
<path d="M102 15.9762L-7.62939e-06 117.976V112.126L102 10.1264V15.9762Z" fill="#C6FF53"/>
<path d="M102 68.7496L-7.62939e-06 170.75V164.941L102 62.941V68.7496Z" fill="#C6FF53"/>
<path d="M102 121.514L-7.62939e-06 223.514V217.706L102 115.706V121.514Z" fill="#C6FF53"/>
<path d="M102 174.338L-7.62939e-06 276.338V270.488L102 168.488V174.338Z" fill="#C6FF53"/>
<path d="M102 227.103L-7.62939e-06 329.103V323.253L102 221.253V227.103Z" fill="#C6FF53"/>
<path d="M102 279.876L-7.62939e-06 381.876V376.068L102 274.068V279.876Z" fill="#C6FF53"/>
<path d="M102 332.642L-7.62939e-06 434.642V428.833L102 326.833V332.642Z" fill="#C6FF53"/>
<path d="M102 385.464L-7.62939e-06 487.464V481.615L102 379.615V385.464Z" fill="#C6FF53"/>
</svg>
