<svg width="112" height="52" viewBox="0 0 112 52" fill="none" xmlns="http://www.w3.org/2000/svg">
<path d="M3.46533 1.7328C3.46533 2.69093 2.69068 3.46558 1.73255 3.46558C0.774418 3.46558 -0.000244447 2.69093 -0.000244531 1.7328C-0.000244614 0.77467 0.774418 -3.17141e-09 1.73255 -8.69338e-08C2.69068 -1.70696e-07 3.46533 0.77467 3.46533 1.7328Z" fill="#75BBFF"/>
<path d="M30.6001 1.7328C30.6001 2.69093 29.8254 3.46558 28.8673 3.46558C27.9092 3.46558 27.1345 2.69093 27.1345 1.7328C27.1345 0.77467 27.9092 -3.17073e-09 28.8673 -8.69331e-08C29.8254 -1.70695e-07 30.6001 0.77467 30.6001 1.7328Z" fill="#75BBFF"/>
<path d="M57.7344 1.7328C57.7344 2.69093 56.9597 3.46558 56.0016 3.46558C55.0435 3.46558 54.2688 2.69093 54.2688 1.7328C54.2688 0.77467 55.0435 -3.17141e-09 56.0016 -8.69338e-08C56.9597 -1.70696e-07 57.7344 0.77467 57.7344 1.7328Z" fill="#75BBFF"/>
<path d="M84.8652 1.7328C84.8652 2.69093 84.0906 3.46558 83.1324 3.46558C82.1743 3.46558 81.3997 2.69093 81.3997 1.7328C81.3997 0.77467 82.1743 -3.17108e-09 83.1324 -8.69334e-08C84.0906 -1.70696e-07 84.8652 0.77467 84.8652 1.7328Z" fill="#75BBFF"/>
<path d="M112 1.73274C112 2.69087 111.225 3.46552 110.267 3.46552C109.309 3.46552 108.534 2.69087 108.534 1.73274C108.534 0.774609 109.309 -6.10383e-05 110.267 -6.11221e-05C111.225 -6.12059e-05 112 0.774609 112 1.73274Z" fill="#75BBFF"/>
<path d="M3.46533 25.9882C3.46533 26.9463 2.69068 27.7209 1.73255 27.7209C0.774418 27.7209 -0.000244447 26.9463 -0.000244531 25.9882C-0.000244614 25.03 0.774418 24.2554 1.73255 24.2554C2.69068 24.2554 3.46533 25.03 3.46533 25.9882Z" fill="#75BBFF"/>
<path d="M30.6001 25.9882C30.6001 26.9463 29.8254 27.7209 28.8673 27.7209C27.9092 27.7209 27.1345 26.9463 27.1345 25.9882C27.1345 25.03 27.9092 24.2554 28.8673 24.2554C29.8254 24.2554 30.6001 25.03 30.6001 25.9882Z" fill="#75BBFF"/>
<path d="M57.7344 25.9882C57.7344 26.9463 56.9597 27.7209 56.0016 27.7209C55.0435 27.7209 54.2688 26.9463 54.2688 25.9882C54.2688 25.03 55.0435 24.2554 56.0016 24.2554C56.9597 24.2554 57.7344 25.03 57.7344 25.9882Z" fill="#75BBFF"/>
<path d="M84.8652 25.9882C84.8652 26.9463 84.0906 27.7209 83.1324 27.7209C82.1743 27.7209 81.3997 26.9463 81.3997 25.9882C81.3997 25.03 82.1743 24.2554 83.1324 24.2554C84.0906 24.2554 84.8652 25.03 84.8652 25.9882Z" fill="#75BBFF"/>
<path d="M112 25.988C112 26.9461 111.225 27.7208 110.267 27.7208C109.309 27.7208 108.534 26.9461 108.534 25.988C108.534 25.0299 109.309 24.2552 110.267 24.2552C111.225 24.2552 112 25.0299 112 25.988Z" fill="#75BBFF"/>
<path d="M3.46533 50.2291C3.46533 51.1873 2.69068 51.9619 1.73255 51.9619C0.774418 51.9619 -0.000244447 51.1873 -0.000244531 50.2291C-0.000244614 49.271 0.774418 48.4963 1.73255 48.4963C2.69068 48.4963 3.46533 49.271 3.46533 50.2291Z" fill="#75BBFF"/>
<path d="M28.8673 48.4963C27.9103 48.4963 27.1345 49.2721 27.1345 50.2291C27.1345 51.1861 27.9103 51.9619 28.8673 51.9619C29.8243 51.9619 30.6001 51.1861 30.6001 50.2291C30.6001 49.2721 29.8243 48.4963 28.8673 48.4963Z" fill="#75BBFF"/>
<path d="M56.0016 48.4963C55.0446 48.4963 54.2688 49.2721 54.2688 50.2291C54.2688 51.1861 55.0446 51.9619 56.0016 51.9619C56.9586 51.9619 57.7344 51.1861 57.7344 50.2291C57.7344 49.2721 56.9586 48.4963 56.0016 48.4963Z" fill="#75BBFF"/>
<path d="M84.8652 50.2291C84.8652 51.1873 84.0906 51.9619 83.1324 51.9619C82.1743 51.9619 81.3997 51.1873 81.3997 50.2291C81.3997 49.271 82.1743 48.4963 83.1324 48.4963C84.0906 48.4963 84.8652 49.271 84.8652 50.2291Z" fill="#75BBFF"/>
<path d="M112 50.2293C112 51.1874 111.225 51.962 110.267 51.962C109.309 51.962 108.534 51.1874 108.534 50.2293C108.534 49.2711 109.309 48.4965 110.267 48.4965C111.225 48.4965 112 49.2711 112 50.2293Z" fill="#75BBFF"/>
</svg>
