<svg width="408" height="53" viewBox="0 0 408 53" fill="none" xmlns="http://www.w3.org/2000/svg">
<path d="M404.587 52.3575L352.23 -6.59912e-07L355.211 -6.24357e-07L407.569 52.3575L404.587 52.3575Z" fill="#878AD9"/>
<path d="M377.481 52.3575L325.123 -6.60165e-07L328.126 -6.24357e-07L380.483 52.3575L377.481 52.3575Z" fill="#878AD9"/>
<path d="M350.392 52.3575L298.035 -6.59912e-07L301.016 -6.24357e-07L353.374 52.3575L350.392 52.3575Z" fill="#878AD9"/>
<path d="M323.3 52.3575L270.942 -6.59912e-07L273.924 -6.24357e-07L326.281 52.3575L323.3 52.3575Z" fill="#878AD9"/>
<path d="M296.193 52.3575L243.836 -6.60165e-07L246.838 -6.24358e-07L299.196 52.3575L296.193 52.3575Z" fill="#878AD9"/>
<path d="M269.104 52.3575L216.746 -6.59912e-07L219.728 -6.24358e-07L272.085 52.3575L269.104 52.3575Z" fill="#878AD9"/>
<path d="M242.019 52.3575L189.662 -6.59913e-07L192.643 -6.24358e-07L245.001 52.3575L242.019 52.3575Z" fill="#878AD9"/>
<path d="M214.904 52.3575L162.547 -6.60165e-07L165.55 -6.24357e-07L217.907 52.3575L214.904 52.3575Z" fill="#878AD9"/>
<path d="M187.82 52.3575L135.462 -6.60164e-07L138.465 -6.24358e-07L190.822 52.3575L187.82 52.3575Z" fill="#878AD9"/>
<path d="M160.731 52.3575L108.373 -6.59913e-07L111.355 -6.24358e-07L163.712 52.3575L160.731 52.3575Z" fill="#878AD9"/>
<path d="M133.646 52.3575L81.2883 -6.59912e-07L84.2699 -6.24357e-07L136.627 52.3575L133.646 52.3575Z" fill="#878AD9"/>
<path d="M106.531 52.3575L54.1734 -6.60164e-07L57.1762 -6.24357e-07L109.534 52.3575L106.531 52.3575Z" fill="#878AD9"/>
<path d="M79.4427 52.3575L27.0852 -6.59912e-07L30.0668 -6.24358e-07L82.4243 52.3575L79.4427 52.3575Z" fill="#878AD9"/>
<path d="M52.3573 52.3575L-0.000258775 -6.59912e-07L2.98134 -6.24357e-07L55.3389 52.3575L52.3573 52.3575Z" fill="#878AD9"/>
</svg>
