<svg width="668" height="270" viewBox="0 0 668 270" fill="none" xmlns="http://www.w3.org/2000/svg">
<g clip-path="url(#clip0_1016_1946)">
<path d="M543.528 -88.1825C540.758 -90.3992 537.987 -92.6159 535.105 -94.7217L67.2793 373.215C69.3851 375.986 71.6018 378.867 73.8184 381.638L543.528 -88.1825Z" fill="#3B3FBA"/>
<path d="M429.247 -148.264C425.368 -149.372 421.489 -150.481 417.499 -151.478L10.5205 255.5C11.518 259.38 12.6263 263.259 13.7347 267.249L429.247 -148.264Z" fill="#3B3FBA"/>
<path d="M509.504 -112.341C506.4 -114.225 503.297 -116.109 500.194 -117.883L44.1162 338.195C45.8895 341.298 47.7737 344.401 49.6579 347.505L509.504 -112.341Z" fill="#3B3FBA"/>
<path d="M471.594 -132.519C468.158 -134.071 464.723 -135.623 461.176 -137.063L24.9375 299.175C26.3783 302.611 27.93 306.157 29.4817 309.593L471.594 -132.519Z" fill="#3B3FBA"/>
<path d="M381.491 -158.691C377.058 -159.356 372.625 -159.8 368.192 -160.354L1.66699 206.282C2.11032 210.715 2.66449 215.148 3.32949 219.582L381.491 -158.691Z" fill="#3B3FBA"/>
<path d="M570.238 -64.266C569.019 -65.4851 567.689 -66.7043 566.47 -67.9235L94.0996 404.447C95.3188 405.666 96.5379 406.996 97.7571 408.215C98.9763 409.434 100.306 410.653 101.525 411.872L573.895 -60.4977C572.676 -61.7168 571.457 -63.0468 570.238 -64.266Z" fill="#3B3FBA"/>
<path d="M326.735 -162C321.526 -161.889 316.317 -161.668 311.108 -161.335L0.775831 148.997C0.332499 154.317 0.110833 159.526 0 164.735L326.735 -162Z" fill="#3B3FBA"/>
<path d="M8.0957 98.4633L260.462 -153.903C253.701 -152.352 247.052 -150.689 240.402 -148.694L13.194 78.5134C11.3099 85.0525 9.53653 91.8133 8.0957 98.4633Z" fill="#3B3FBA"/>
<path d="M667.334 195.001C667.666 189.792 667.888 184.582 667.999 179.373L341.374 505.998C346.583 505.887 351.792 505.665 357.001 505.333L667.334 195.001Z" fill="#3B3FBA"/>
<path d="M666.322 137.82C665.879 133.387 665.325 128.953 664.66 124.52L286.498 502.793C290.931 503.458 295.365 503.901 299.798 504.455L666.322 137.82Z" fill="#3B3FBA"/>
<path d="M164.365 -115.892C140.646 -101.816 118.258 -84.6368 97.8649 -64.2436C77.4717 -43.8503 60.2926 -21.4621 46.2168 2.25616L164.365 -115.892Z" fill="#3B3FBA"/>
<path d="M654.795 265.588C656.679 258.938 658.452 252.288 660.004 245.528L407.526 497.894C414.287 496.343 420.937 494.68 427.587 492.685L654.795 265.588Z" fill="#3B3FBA"/>
<path d="M623.888 5.8085C622.114 2.70518 620.23 -0.398143 618.346 -3.50146L158.5 456.344C161.603 458.229 164.707 460.113 167.81 461.886L623.888 5.8085Z" fill="#3B3FBA"/>
<path d="M600.831 -29.1061C598.725 -31.8769 596.508 -34.7586 594.292 -37.5294L124.471 432.291C127.242 434.508 130.012 436.725 132.894 438.831L600.831 -29.1061Z" fill="#3B3FBA"/>
<path d="M657.561 88.4725C656.564 84.5934 655.455 80.7142 654.347 76.7242L238.724 492.348C242.603 493.456 246.482 494.564 250.472 495.562L657.561 88.4725Z" fill="#3B3FBA"/>
<path d="M643.06 44.8007C641.619 41.3649 640.068 37.8183 638.516 34.3824L196.403 476.495C199.839 478.047 203.275 479.598 206.822 481.039L643.06 44.8007Z" fill="#3B3FBA"/>
</g>
<defs>
<clipPath id="clip0_1016_1946">
<rect width="668" height="270" fill="white"/>
</clipPath>
</defs>
</svg>
