<svg width="102" height="522" viewBox="0 0 102 522" fill="none" xmlns="http://www.w3.org/2000/svg">
<path d="M102 -89.6121L-7.62939e-06 12.3879V6.57933L102 -95.4207V-89.6121Z" fill="#EB742E"/>
<path d="M102 -36.8308L-7.62939e-06 65.1691V59.3606L102 -42.6394V-36.8308Z" fill="#EB742E"/>
<path d="M102 15.9762L-7.62939e-06 117.976V112.126L102 10.1265V15.9762Z" fill="#EB742E"/>
<path d="M102 68.7495L-7.62939e-06 170.749V164.941L102 62.9409V68.7495Z" fill="#EB742E"/>
<path d="M102 121.514L-7.62939e-06 223.514V217.706L102 115.706V121.514Z" fill="#EB742E"/>
<path d="M102 174.338L-7.62939e-06 276.338V270.488L102 168.488V174.338Z" fill="#EB742E"/>
<path d="M102 227.103L-7.62939e-06 329.103V323.253L102 221.253V227.103Z" fill="#EB742E"/>
<path d="M102 279.876L-7.62939e-06 381.876V376.068L102 274.068V279.876Z" fill="#EB742E"/>
<path d="M102 332.642L-7.62939e-06 434.642V428.833L102 326.833V332.642Z" fill="#EB742E"/>
<path d="M102 385.464L-7.62939e-06 487.464V481.615L102 379.615V385.464Z" fill="#EB742E"/>
<path d="M102 438.237L-7.62939e-06 540.237V534.428L102 432.428V438.237Z" fill="#EB742E"/>
<path d="M102 491.003L-7.62939e-06 593.003V587.194L102 485.194V491.003Z" fill="#EB742E"/>
</svg>
