<svg width="324" height="320" viewBox="0 0 324 320" fill="none" xmlns="http://www.w3.org/2000/svg">
<mask id="mask0_1017_1824" style="mask-type:alpha" maskUnits="userSpaceOnUse" x="0" y="0" width="324" height="320">
<path d="M0.990372 319.936V0.0641026H323.683V319.936H0.990372Z" fill="#EBE9FF" stroke="#EB742E" stroke-width="0.128205"/>
</mask>
<g mask="url(#mask0_1017_1824)">
<path d="M322.47 312.983C304.611 312.983 304.611 293.528 286.752 293.528C268.892 293.528 268.892 312.983 251.033 312.983C233.174 312.983 233.174 293.528 215.314 293.528C197.455 293.528 197.455 312.983 179.596 312.983C161.736 312.983 161.736 293.528 143.877 293.528C126.018 293.528 126.018 312.983 108.158 312.983C90.2992 312.983 90.2992 293.528 72.4398 293.528C54.5805 293.528 54.5805 312.983 36.6831 312.983C18.8237 312.983 18.8237 293.528 0.92627 293.528" stroke="#EB742E" stroke-width="3.20513" stroke-miterlimit="10" stroke-linecap="round"/>
<path d="M322.47 280.155C304.611 280.155 304.611 260.7 286.752 260.7C268.892 260.7 268.892 280.155 251.033 280.155C233.174 280.155 233.174 260.7 215.314 260.7C197.455 260.7 197.455 280.155 179.596 280.155C161.736 280.155 161.736 260.7 143.877 260.7C126.018 260.7 126.018 280.155 108.158 280.155C90.2992 280.155 90.2992 260.7 72.4398 260.7C54.5805 260.7 54.5805 280.155 36.6831 280.155C18.8237 280.155 18.8237 260.7 0.92627 260.7" stroke="#EB742E" stroke-width="3.20513" stroke-miterlimit="10" stroke-linecap="round"/>
<path d="M322.469 247.336C304.61 247.336 304.61 227.881 286.75 227.881C268.891 227.881 268.891 247.336 251.032 247.336C233.172 247.336 233.172 227.881 215.313 227.881C197.454 227.881 197.454 247.336 179.594 247.336C161.735 247.336 161.735 227.881 143.876 227.881C126.016 227.881 126.016 247.336 108.157 247.336C90.2978 247.336 90.2978 227.881 72.4385 227.881C54.5792 227.881 54.5792 247.336 36.6817 247.336C18.8605 247.336 18.8605 227.881 1.00122 227.881" stroke="#EB742E" stroke-width="3.20513" stroke-miterlimit="10" stroke-linecap="round"/>
<path d="M323.747 95.973C305.817 95.973 305.817 76.4409 287.886 76.4409C269.956 76.4409 269.956 95.973 252.026 95.973C234.096 95.973 234.096 76.4409 216.166 76.4409C198.235 76.4409 198.235 95.973 180.305 95.973C162.375 95.973 162.375 76.4409 144.445 76.4409C126.514 76.4409 126.514 95.973 108.584 95.973C90.654 95.973 90.654 76.4409 72.7238 76.4409C54.7935 76.4409 54.7936 95.973 36.825 95.973C18.8948 95.973 18.8948 76.4409 0.92627 76.4409" stroke="#EB742E" stroke-width="3.20513" stroke-miterlimit="10" stroke-linecap="round"/>
<path d="M323.747 63.0153C305.817 63.0153 305.817 43.4831 287.886 43.4831C269.956 43.4831 269.956 63.0153 252.026 63.0153C234.096 63.0153 234.096 43.4831 216.166 43.4831C198.235 43.4831 198.235 63.0153 180.305 63.0153C162.375 63.0153 162.375 43.4831 144.445 43.4831C126.514 43.4831 126.514 63.0153 108.584 63.0153C90.654 63.0153 90.654 43.4831 72.7238 43.4831C54.7935 43.4831 54.7936 63.0153 36.825 63.0153C18.8948 63.0153 18.8948 43.4831 0.92627 43.4831" stroke="#EB742E" stroke-width="3.20513" stroke-miterlimit="10" stroke-linecap="round"/>
<path d="M323.745 30.0656C305.815 30.0656 305.815 10.5334 287.885 10.5334C269.955 10.5334 269.955 30.0656 252.025 30.0656C234.094 30.0656 234.094 10.5334 216.164 10.5334C198.234 10.5334 198.234 30.0656 180.304 30.0656C162.373 30.0656 162.373 10.5334 144.443 10.5334C126.513 10.5334 126.513 30.0656 108.583 30.0656C90.6526 30.0656 90.6526 10.5334 72.7223 10.5334C54.7921 10.5334 54.7921 30.0656 36.8236 30.0656C18.9317 30.0656 18.9317 10.5334 1.00146 10.5334" stroke="#EB742E" stroke-width="3.20513" stroke-miterlimit="10" stroke-linecap="round"/>
<path d="M323.747 204.555C305.817 204.555 305.817 185.023 287.886 185.023C269.956 185.023 269.956 204.555 252.026 204.555C234.096 204.555 234.096 185.023 216.166 185.023C198.235 185.023 198.235 204.555 180.305 204.555C162.375 204.555 162.375 185.023 144.445 185.023C126.514 185.023 126.514 204.555 108.584 204.555C90.654 204.555 90.654 185.023 72.7238 185.023C54.7935 185.023 54.7936 204.555 36.825 204.555C18.8948 204.555 18.8948 185.023 0.92627 185.023" stroke="#EB742E" stroke-width="3.20513" stroke-miterlimit="10" stroke-linecap="round"/>
<path d="M323.747 171.596C305.817 171.596 305.817 152.064 287.886 152.064C269.956 152.064 269.956 171.596 252.026 171.596C234.096 171.596 234.096 152.064 216.166 152.064C198.235 152.064 198.235 171.596 180.305 171.596C162.375 171.596 162.375 152.064 144.445 152.064C126.514 152.064 126.514 171.596 108.584 171.596C90.654 171.596 90.654 152.064 72.7238 152.064C54.7935 152.064 54.7936 171.596 36.825 171.596C18.8948 171.596 18.8948 152.064 0.92627 152.064" stroke="#EB742E" stroke-width="3.20513" stroke-miterlimit="10" stroke-linecap="round"/>
<path d="M323.745 138.647C305.815 138.647 305.815 119.115 287.885 119.115C269.955 119.115 269.955 138.647 252.025 138.647C234.094 138.647 234.094 119.115 216.164 119.115C198.234 119.115 198.234 138.647 180.304 138.647C162.373 138.647 162.373 119.115 144.443 119.115C126.513 119.115 126.513 138.647 108.583 138.647C90.6526 138.647 90.6526 119.115 72.7223 119.115C54.7921 119.115 54.7921 138.647 36.8236 138.647C18.9317 138.647 18.9317 119.115 1.00146 119.115" stroke="#EB742E" stroke-width="3.20513" stroke-miterlimit="10" stroke-linecap="round"/>
</g>
</svg>
