<svg width="52" height="112" viewBox="0 0 52 112" fill="none" xmlns="http://www.w3.org/2000/svg">
<path d="M1.73304 108.534C2.69117 108.534 3.46582 109.309 3.46582 110.267C3.46582 111.225 2.69117 112 1.73304 112C0.774914 112 0.000243785 111.225 0.000243826 110.267C0.000243868 109.309 0.774914 108.534 1.73304 108.534Z" fill="#FD4B38"/>
<path d="M1.73304 81.4C2.69117 81.4 3.46582 82.1747 3.46582 83.1328C3.46582 84.0909 2.69117 84.8656 1.73304 84.8656C0.774914 84.8656 0.000243785 84.0909 0.000243826 83.1328C0.000243868 82.1747 0.774914 81.4 1.73304 81.4Z" fill="#FD4B38"/>
<path d="M1.73304 54.2657C2.69117 54.2657 3.46582 55.0404 3.46582 55.9985C3.46582 56.9567 2.69117 57.7313 1.73304 57.7313C0.774914 57.7313 0.000243785 56.9567 0.000243826 55.9985C0.000243868 55.0404 0.774914 54.2657 1.73304 54.2657Z" fill="#FD4B38"/>
<path d="M1.73304 27.1348C2.69117 27.1348 3.46582 27.9094 3.46582 28.8676C3.46582 29.8257 2.69117 30.6003 1.73304 30.6003C0.774914 30.6003 0.000243785 29.8257 0.000243826 28.8676C0.000243868 27.9094 0.774914 27.1348 1.73304 27.1348Z" fill="#FD4B38"/>
<path d="M1.73304 -7.57421e-08C2.69117 -3.38609e-08 3.46582 0.774658 3.46582 1.73279C3.46582 2.69092 2.69117 3.46558 1.73304 3.46558C0.774914 3.46558 0.000243785 2.69092 0.000243826 1.73279C0.000243868 0.774658 0.774914 -1.17623e-07 1.73304 -7.57421e-08Z" fill="#FD4B38"/>
<path d="M25.9884 108.534C26.9465 108.534 27.7212 109.309 27.7212 110.267C27.7212 111.225 26.9465 112 25.9884 112C25.0303 112 24.2556 111.225 24.2556 110.267C24.2556 109.309 25.0303 108.534 25.9884 108.534Z" fill="#FD4B38"/>
<path d="M25.9884 81.4C26.9465 81.4 27.7212 82.1747 27.7212 83.1328C27.7212 84.0909 26.9465 84.8656 25.9884 84.8656C25.0303 84.8656 24.2556 84.0909 24.2556 83.1328C24.2556 82.1747 25.0303 81.4 25.9884 81.4Z" fill="#FD4B38"/>
<path d="M25.9884 54.2657C26.9465 54.2657 27.7212 55.0404 27.7212 55.9985C27.7212 56.9567 26.9465 57.7313 25.9884 57.7313C25.0303 57.7313 24.2556 56.9567 24.2556 55.9985C24.2556 55.0404 25.0303 54.2657 25.9884 54.2657Z" fill="#FD4B38"/>
<path d="M25.9884 27.1348C26.9465 27.1348 27.7212 27.9094 27.7212 28.8676C27.7212 29.8257 26.9465 30.6003 25.9884 30.6003C25.0303 30.6003 24.2556 29.8257 24.2556 28.8676C24.2556 27.9094 25.0303 27.1348 25.9884 27.1348Z" fill="#FD4B38"/>
<path d="M25.9884 -7.57424e-08C26.9465 -3.38612e-08 27.7212 0.774658 27.7212 1.73279C27.7212 2.69092 26.9465 3.46558 25.9884 3.46558C25.0303 3.46558 24.2556 2.69092 24.2556 1.73279C24.2556 0.774658 25.0303 -1.17624e-07 25.9884 -7.57424e-08Z" fill="#FD4B38"/>
<path d="M50.2294 108.534C51.1875 108.534 51.9622 109.309 51.9622 110.267C51.9622 111.225 51.1875 112 50.2294 112C49.2712 112 48.4966 111.225 48.4966 110.267C48.4966 109.309 49.2712 108.534 50.2294 108.534Z" fill="#FD4B38"/>
<path d="M48.4966 83.1327C48.4966 84.0897 49.2724 84.8655 50.2294 84.8655C51.1864 84.8655 51.9622 84.0897 51.9622 83.1327C51.9622 82.1757 51.1864 81.3999 50.2294 81.3999C49.2724 81.3999 48.4966 82.1757 48.4966 83.1327Z" fill="#FD4B38"/>
<path d="M48.4966 55.9985C48.4966 56.9555 49.2724 57.7313 50.2294 57.7313C51.1864 57.7313 51.9622 56.9555 51.9622 55.9985C51.9622 55.0415 51.1864 54.2657 50.2294 54.2657C49.2724 54.2657 48.4966 55.0415 48.4966 55.9985Z" fill="#FD4B38"/>
<path d="M50.2294 27.1348C51.1875 27.1348 51.9622 27.9094 51.9622 28.8676C51.9622 29.8257 51.1875 30.6003 50.2294 30.6003C49.2712 30.6003 48.4966 29.8257 48.4966 28.8676C48.4966 27.9094 49.2712 27.1348 50.2294 27.1348Z" fill="#FD4B38"/>
<path d="M50.2296 -7.57424e-08C51.1877 -3.38612e-08 51.9624 0.774658 51.9624 1.73279C51.9624 2.69092 51.1877 3.46558 50.2296 3.46558C49.2715 3.46558 48.4968 2.69092 48.4968 1.73279C48.4968 0.774658 49.2715 -1.17624e-07 50.2296 -7.57424e-08Z" fill="#FD4B38"/>
</svg>
