<svg width="112" height="52" viewBox="0 0 112 52" fill="none" xmlns="http://www.w3.org/2000/svg">
<path d="M3.46558 1.73292C3.46558 2.69105 2.69092 3.4657 1.73279 3.4657C0.774662 3.4657 -3.0614e-07 2.69105 -3.89903e-07 1.73292C-4.73665e-07 0.774792 0.774662 0.000122067 1.73279 0.000121983C2.69092 0.0001219 3.46558 0.774792 3.46558 1.73292Z" fill="#FD4B38"/>
<path d="M30.6001 1.73292C30.6001 2.69105 29.8254 3.4657 28.8673 3.4657C27.9092 3.4657 27.1345 2.69105 27.1345 1.73292C27.1345 0.774792 27.9092 0.000122067 28.8673 0.000121983C29.8254 0.0001219 30.6001 0.774792 30.6001 1.73292Z" fill="#FD4B38"/>
<path d="M57.7344 1.73292C57.7344 2.69105 56.9597 3.4657 56.0016 3.4657C55.0435 3.4657 54.2688 2.69105 54.2688 1.73292C54.2688 0.774792 55.0435 0.000122067 56.0016 0.000121983C56.9597 0.0001219 57.7344 0.774792 57.7344 1.73292Z" fill="#FD4B38"/>
<path d="M84.8652 1.73292C84.8652 2.69105 84.0906 3.4657 83.1324 3.4657C82.1743 3.4657 81.3997 2.69105 81.3997 1.73292C81.3997 0.774792 82.1743 0.000122067 83.1324 0.000121983C84.0906 0.0001219 84.8652 0.774792 84.8652 1.73292Z" fill="#FD4B38"/>
<path d="M112 1.7328C112 2.69093 111.225 3.46558 110.267 3.46558C109.309 3.46558 108.534 2.69093 108.534 1.7328C108.534 0.77467 109.309 -3.17116e-09 110.267 -8.69335e-08C111.225 -1.70696e-07 112 0.77467 112 1.7328Z" fill="#FD4B38"/>
<path d="M3.46558 25.988C3.46558 26.9462 2.69092 27.7208 1.73279 27.7208C0.774662 27.7208 -3.06141e-07 26.9462 -3.89903e-07 25.988C-4.73666e-07 25.0299 0.774662 24.2552 1.73279 24.2552C2.69092 24.2552 3.46558 25.0299 3.46558 25.988Z" fill="#FD4B38"/>
<path d="M30.6001 25.988C30.6001 26.9462 29.8254 27.7208 28.8673 27.7208C27.9092 27.7208 27.1345 26.9462 27.1345 25.988C27.1345 25.0299 27.9092 24.2552 28.8673 24.2552C29.8254 24.2552 30.6001 25.0299 30.6001 25.988Z" fill="#FD4B38"/>
<path d="M57.7344 25.988C57.7344 26.9462 56.9597 27.7208 56.0016 27.7208C55.0435 27.7208 54.2688 26.9462 54.2688 25.988C54.2688 25.0299 55.0435 24.2552 56.0016 24.2552C56.9597 24.2552 57.7344 25.0299 57.7344 25.988Z" fill="#FD4B38"/>
<path d="M84.8652 25.988C84.8652 26.9462 84.0906 27.7208 83.1324 27.7208C82.1743 27.7208 81.3997 26.9462 81.3997 25.988C81.3997 25.0299 82.1743 24.2552 83.1324 24.2552C84.0906 24.2552 84.8652 25.0299 84.8652 25.988Z" fill="#FD4B38"/>
<path d="M112 25.9879C112 26.946 111.225 27.7207 110.267 27.7207C109.309 27.7207 108.534 26.946 108.534 25.9879C108.534 25.0298 109.309 24.2551 110.267 24.2551C111.225 24.2551 112 25.0298 112 25.9879Z" fill="#FD4B38"/>
<path d="M3.46558 50.2291C3.46558 51.1873 2.69092 51.9619 1.73279 51.9619C0.774662 51.9619 -3.06141e-07 51.1873 -3.89903e-07 50.2291C-4.73666e-07 49.271 0.774662 48.4963 1.73279 48.4963C2.69092 48.4963 3.46558 49.271 3.46558 50.2291Z" fill="#FD4B38"/>
<path d="M28.8673 48.4963C27.9103 48.4963 27.1345 49.2721 27.1345 50.2291C27.1345 51.1861 27.9103 51.9619 28.8673 51.9619C29.8243 51.9619 30.6001 51.1861 30.6001 50.2291C30.6001 49.2721 29.8243 48.4963 28.8673 48.4963Z" fill="#FD4B38"/>
<path d="M56.0016 48.4963C55.0446 48.4963 54.2688 49.2721 54.2688 50.2291C54.2688 51.1861 55.0446 51.9619 56.0016 51.9619C56.9586 51.9619 57.7344 51.1861 57.7344 50.2291C57.7344 49.2721 56.9586 48.4963 56.0016 48.4963Z" fill="#FD4B38"/>
<path d="M84.8652 50.2291C84.8652 51.1873 84.0906 51.9619 83.1324 51.9619C82.1743 51.9619 81.3997 51.1873 81.3997 50.2291C81.3997 49.271 82.1743 48.4963 83.1324 48.4963C84.0906 48.4963 84.8652 49.271 84.8652 50.2291Z" fill="#FD4B38"/>
<path d="M112 50.2293C112 51.1874 111.225 51.962 110.267 51.962C109.309 51.962 108.534 51.1874 108.534 50.2293C108.534 49.2711 109.309 48.4965 110.267 48.4965C111.225 48.4965 112 49.2711 112 50.2293Z" fill="#FD4B38"/>
</svg>
