<svg width="116" height="144" viewBox="0 0 116 144" fill="none" xmlns="http://www.w3.org/2000/svg">
<mask id="mask0_1017_3011" style="mask-type:alpha" maskUnits="userSpaceOnUse" x="0" y="-127" width="323" height="320">
<path d="M0.0641026 192.936V-126.936H322.756V192.936H0.0641026Z" fill="#EBE9FF" stroke="#EB742E" stroke-width="0.128205"/>
</mask>
<g mask="url(#mask0_1017_3011)">
<path d="M321.544 153.155C303.685 153.155 303.685 133.7 285.825 133.7C267.966 133.7 267.966 153.155 250.107 153.155C232.247 153.155 232.247 133.7 214.388 133.7C196.529 133.7 196.529 153.155 178.669 153.155C160.81 153.155 160.81 133.7 142.951 133.7C125.092 133.7 125.092 153.155 107.232 153.155C89.3729 153.155 89.3729 133.7 71.5136 133.7C53.6543 133.7 53.6543 153.155 35.7568 153.155C17.8975 153.155 17.8975 133.7 0 133.7" stroke="#EB742E" stroke-width="3.20513" stroke-miterlimit="10" stroke-linecap="round"/>
<path d="M321.542 120.336C303.683 120.336 303.683 100.881 285.824 100.881C267.964 100.881 267.964 120.336 250.105 120.336C232.246 120.336 232.246 100.881 214.386 100.881C196.527 100.881 196.527 120.336 178.668 120.336C160.809 120.336 160.809 100.881 142.949 100.881C125.09 100.881 125.09 120.336 107.231 120.336C89.3713 120.336 89.3713 100.881 71.512 100.881C53.6526 100.881 53.6526 120.336 35.7552 120.336C17.934 120.336 17.934 100.881 0.074707 100.881" stroke="#EB742E" stroke-width="3.20513" stroke-miterlimit="10" stroke-linecap="round"/>
<path d="M322.821 77.5549C304.89 77.5549 304.89 58.0227 286.96 58.0227C269.03 58.0227 269.03 77.5549 251.1 77.5549C233.169 77.5549 233.169 58.0227 215.239 58.0227C197.309 58.0227 197.309 77.5549 179.379 77.5549C161.449 77.5549 161.449 58.0227 143.518 58.0227C125.588 58.0227 125.588 77.5549 107.658 77.5549C89.7277 77.5549 89.7277 58.0227 71.7975 58.0227C53.8673 58.0227 53.8673 77.5549 35.8988 77.5549C17.9685 77.5549 17.9685 58.0227 0 58.0227" stroke="#EB742E" stroke-width="3.20513" stroke-miterlimit="10" stroke-linecap="round"/>
<path d="M322.821 44.5961C304.89 44.5961 304.89 25.064 286.96 25.064C269.03 25.064 269.03 44.5961 251.1 44.5961C233.169 44.5961 233.169 25.064 215.239 25.064C197.309 25.064 197.309 44.5961 179.379 44.5961C161.449 44.5961 161.449 25.064 143.518 25.064C125.588 25.064 125.588 44.5961 107.658 44.5961C89.7277 44.5961 89.7277 25.064 71.7975 25.064C53.8673 25.064 53.8673 44.5961 35.8988 44.5961C17.9685 44.5961 17.9685 25.064 0 25.064" stroke="#EB742E" stroke-width="3.20513" stroke-miterlimit="10" stroke-linecap="round"/>
<path d="M322.819 11.6469C304.889 11.6469 304.889 -7.88525 286.959 -7.88525C269.028 -7.88525 269.028 11.6469 251.098 11.6469C233.168 11.6469 233.168 -7.88525 215.238 -7.88525C197.308 -7.88525 197.308 11.6469 179.377 11.6469C161.447 11.6469 161.447 -7.88525 143.517 -7.88525C125.587 -7.88525 125.587 11.6469 107.657 11.6469C89.7263 11.6469 89.7263 -7.88525 71.7961 -7.88525C53.8658 -7.88525 53.8659 11.6469 35.8973 11.6469C18.0054 11.6469 18.0054 -7.88525 0.0751953 -7.88525" stroke="#EB742E" stroke-width="3.20513" stroke-miterlimit="10" stroke-linecap="round"/>
</g>
</svg>
