<svg width="115" height="114" viewBox="0 0 115 114" fill="none" xmlns="http://www.w3.org/2000/svg">
<mask id="mask0_1016_1551" style="mask-type:alpha" maskUnits="userSpaceOnUse" x="0" y="0" width="115" height="114">
<path d="M1 112.67V1H113.672V112.67H1Z" fill="#EBE9FF" stroke="#EB742E" stroke-width="2"/>
</mask>
<g mask="url(#mask0_1016_1551)">
<path d="M114.218 111.177C107.874 111.177 107.874 104.266 101.53 104.266C95.1863 104.266 95.1863 111.177 88.8423 111.177C82.4984 111.177 82.4984 104.266 76.1545 104.266C69.8105 104.266 69.8105 111.177 63.4666 111.177C57.1226 111.177 57.1226 104.266 50.7787 104.266C44.4347 104.266 44.4347 111.177 38.0908 111.177C31.7468 111.177 31.7468 104.266 25.4029 104.266C19.0589 104.266 19.0589 111.177 12.7014 111.177C6.3575 111.177 6.3575 104.266 0 104.266" stroke="#EB742E" stroke-width="2" stroke-miterlimit="10" stroke-linecap="round"/>
<path d="M114.218 99.5161C107.874 99.5161 107.874 92.6053 101.53 92.6053C95.1863 92.6053 95.1863 99.5161 88.8423 99.5161C82.4984 99.5161 82.4984 92.6053 76.1545 92.6053C69.8105 92.6053 69.8105 99.5161 63.4666 99.5161C57.1226 99.5161 57.1226 92.6053 50.7787 92.6053C44.4347 92.6053 44.4347 99.5161 38.0908 99.5161C31.7468 99.5161 31.7468 92.6053 25.4029 92.6053C19.0589 92.6053 19.0589 99.5161 12.7014 99.5161C6.3575 99.5161 6.3575 92.6053 0 92.6053" stroke="#EB742E" stroke-width="2" stroke-miterlimit="10" stroke-linecap="round"/>
<path d="M114.217 87.858C107.873 87.858 107.873 80.9473 101.529 80.9473C95.1855 80.9473 95.1855 87.858 88.8416 87.858C82.4976 87.858 82.4976 80.9473 76.1537 80.9473C69.8098 80.9473 69.8098 87.858 63.4658 87.858C57.1219 87.858 57.1219 80.9473 50.7779 80.9473C44.434 80.9473 44.434 87.858 38.09 87.858C31.7461 87.858 31.7461 80.9473 25.4021 80.9473C19.0582 80.9473 19.0582 87.858 12.7007 87.858C6.37031 87.858 6.37031 80.9473 0.0263672 80.9473" stroke="#EB742E" stroke-width="2" stroke-miterlimit="10" stroke-linecap="round"/>
<path d="M114.672 34.0913C108.302 34.0913 108.302 27.1531 101.933 27.1531C95.5642 27.1531 95.5642 34.0913 89.1951 34.0913C82.8259 34.0913 82.8259 27.1531 76.4568 27.1531C70.0877 27.1531 70.0877 34.0913 63.7185 34.0913C57.3494 34.0913 57.3494 27.1531 50.9803 27.1531C44.6111 27.1531 44.6111 34.0913 38.242 34.0913C31.8729 34.0913 31.8729 27.1531 25.5037 27.1531C19.1346 27.1531 19.1346 34.0913 12.7519 34.0913C6.38274 34.0913 6.38274 27.1531 0 27.1531" stroke="#EB742E" stroke-width="2" stroke-miterlimit="10" stroke-linecap="round"/>
<path d="M114.672 22.3842C108.302 22.3842 108.302 15.446 101.933 15.446C95.5642 15.446 95.5642 22.3842 89.1951 22.3842C82.8259 22.3842 82.8259 15.446 76.4568 15.446C70.0877 15.446 70.0877 22.3842 63.7185 22.3842C57.3494 22.3842 57.3494 15.446 50.9803 15.446C44.6111 15.446 44.6111 22.3842 38.242 22.3842C31.8729 22.3842 31.8729 15.446 25.5037 15.446C19.1346 15.446 19.1346 22.3842 12.7519 22.3842C6.38274 22.3842 6.38274 15.446 0 15.446" stroke="#EB742E" stroke-width="2" stroke-miterlimit="10" stroke-linecap="round"/>
<path d="M114.672 10.6798C108.303 10.6798 108.303 3.74164 101.933 3.74164C95.5643 3.74164 95.5643 10.6798 89.1952 10.6798C82.8261 10.6798 82.8261 3.74164 76.4569 3.74164C70.0878 3.74164 70.0878 10.6798 63.7187 10.6798C57.3495 10.6798 57.3495 3.74164 50.9804 3.74164C44.6113 3.74164 44.6113 10.6798 38.2421 10.6798C31.873 10.6798 31.873 3.74164 25.5039 3.74164C19.1347 3.74164 19.1347 10.6798 12.752 10.6798C6.39648 10.6798 6.39648 3.74164 0.0273438 3.74164" stroke="#EB742E" stroke-width="2" stroke-miterlimit="10" stroke-linecap="round"/>
<path d="M114.672 72.6615C108.302 72.6615 108.302 65.7233 101.933 65.7233C95.5642 65.7233 95.5642 72.6615 89.1951 72.6615C82.8259 72.6615 82.8259 65.7233 76.4568 65.7233C70.0877 65.7233 70.0877 72.6615 63.7185 72.6615C57.3494 72.6615 57.3494 65.7233 50.9803 65.7233C44.6111 65.7233 44.6111 72.6615 38.242 72.6615C31.8729 72.6615 31.8729 65.7233 25.5037 65.7233C19.1346 65.7233 19.1346 72.6615 12.7519 72.6615C6.38274 72.6615 6.38274 65.7233 0 65.7233" stroke="#EB742E" stroke-width="2" stroke-miterlimit="10" stroke-linecap="round"/>
<path d="M114.672 60.9539C108.302 60.9539 108.302 54.0157 101.933 54.0157C95.5642 54.0157 95.5642 60.9539 89.1951 60.9539C82.8259 60.9539 82.8259 54.0157 76.4568 54.0157C70.0877 54.0157 70.0877 60.9539 63.7185 60.9539C57.3494 60.9539 57.3494 54.0157 50.9803 54.0157C44.6111 54.0157 44.6111 60.9539 38.242 60.9539C31.8729 60.9539 31.8729 54.0157 25.5037 54.0157C19.1346 54.0157 19.1346 60.9539 12.7519 60.9539C6.38274 60.9539 6.38274 54.0157 0 54.0157" stroke="#EB742E" stroke-width="2" stroke-miterlimit="10" stroke-linecap="round"/>
<path d="M114.672 49.2498C108.303 49.2498 108.303 42.3116 101.933 42.3116C95.5643 42.3116 95.5643 49.2498 89.1952 49.2498C82.8261 49.2498 82.8261 42.3116 76.4569 42.3116C70.0878 42.3116 70.0878 49.2498 63.7187 49.2498C57.3495 49.2498 57.3495 42.3116 50.9804 42.3116C44.6113 42.3116 44.6113 49.2498 38.2421 49.2498C31.873 49.2498 31.873 42.3116 25.5039 42.3116C19.1347 42.3116 19.1347 49.2498 12.752 49.2498C6.39648 49.2498 6.39648 42.3116 0.0273438 42.3116" stroke="#EB742E" stroke-width="2" stroke-miterlimit="10" stroke-linecap="round"/>
</g>
</svg>
